<svg width="31" height="31" viewBox="0 0 31 31" fill="none" xmlns="http://www.w3.org/2000/svg">
<path d="M15.5 28.4163C22.6337 28.4163 28.4167 22.6334 28.4167 15.4997C28.4167 8.366 22.6337 2.58301 15.5 2.58301C8.36636 2.58301 2.58337 8.366 2.58337 15.4997C2.58337 22.6334 8.36636 28.4163 15.5 28.4163Z" stroke="#FCB74F" stroke-width="2" stroke-linecap="round"/>
<path d="M10.3334 11.625H10.3459" stroke="#FCB74F" stroke-width="3" stroke-linecap="round"/>
<path d="M20.6538 11.625H20.6663" stroke="#FCB74F" stroke-width="3" stroke-linecap="round"/>
<path d="M21.4546 18.083C20.8019 19.5956 19.5959 20.8016 18.0833 21.4543C17.2852 21.7868 16.4292 21.958 15.5646 21.958C14.7 21.958 13.8439 21.7868 13.0458 21.4543C11.4846 20.8291 10.2288 19.6196 9.54541 18.083" stroke="#FCB74F" stroke-width="2" stroke-linecap="round"/>
</svg>
