<svg width="30" height="29" viewBox="0 0 30 29" fill="none" xmlns="http://www.w3.org/2000/svg">
<path d="M10.9382 22.2061V28.0539C10.9382 28.4624 11.1982 28.8243 11.5832 28.9529C11.6795 28.9844 11.7782 28.9996 11.8757 28.9996C12.1682 28.9996 12.4507 28.8609 12.6307 28.6138L16.022 23.9587L10.9382 22.2061Z" fill="#FCB74F"/>
<path d="M29.6062 0.175372C29.3187 -0.030149 28.9412 -0.0578879 28.6287 0.107285L0.503804 14.9224C0.171305 15.0977 -0.0249443 15.4558 0.00255559 15.8328C0.0313055 16.211 0.280055 16.5338 0.633804 16.6561L8.45253 19.3518L25.1037 4.9906L12.2188 20.6492L25.3225 25.1669C25.42 25.1997 25.5225 25.2173 25.625 25.2173C25.795 25.2173 25.9637 25.1707 26.1125 25.0799C26.35 24.9337 26.5112 24.6878 26.5525 24.4117L29.99 1.08571C30.0412 0.732673 29.8937 0.382153 29.6062 0.175372V0.175372Z" fill="#FCB74F"/>
</svg>
