<svg xmlns="http://www.w3.org/2000/svg" width="14" height="10" viewBox="0 0 14 10" fill="none">
	<path
		fillRule="evenodd"
		clipRule="evenodd"
		d="M8.31482e-05 4.50083C8.31429e-05 4.63344 0.0527612 4.76062 0.146529 4.85438C0.240297 4.94815 0.367475 5.00083 0.500083 5.00083L12.2931 5.00083L9.14608 8.14683C9.0996 8.19332 9.06272 8.24851 9.03756 8.30925C9.0124 8.36999 8.99945 8.43509 8.99945 8.50083C8.99945 8.56658 9.0124 8.63168 9.03756 8.69242C9.06272 8.75316 9.0996 8.80834 9.14608 8.85483C9.19257 8.90132 9.24776 8.9382 9.3085 8.96336C9.36924 8.98851 9.43434 9.00146 9.50008 9.00146C9.56583 9.00146 9.63093 8.98851 9.69167 8.96336C9.75241 8.9382 9.8076 8.90132 9.85408 8.85483L13.8541 4.85483C13.9006 4.80839 13.9376 4.75321 13.9628 4.69247C13.988 4.63172 14.001 4.5666 14.001 4.50083C14.001 4.43507 13.988 4.36995 13.9628 4.3092C13.9376 4.24846 13.9006 4.19328 13.8541 4.14683L9.85408 0.146833C9.8076 0.100345 9.75241 0.0634681 9.69167 0.0383092C9.63093 0.0131503 9.56583 0.000201324 9.50008 0.000201312C9.43434 0.000201299 9.36924 0.0131503 9.3085 0.0383091C9.24776 0.063468 9.19257 0.100345 9.14608 0.146832C9.0996 0.19332 9.06272 0.248509 9.03756 0.309249C9.0124 0.369988 8.99945 0.435089 8.99945 0.500833C8.99945 0.566576 9.0124 0.631677 9.03756 0.692416C9.06272 0.753156 9.0996 0.808345 9.14608 0.854833L12.2931 4.00083L0.500083 4.00083C0.367475 4.00083 0.240298 4.05351 0.146529 4.14728C0.0527613 4.24105 8.31534e-05 4.36822 8.31482e-05 4.50083Z"
		fill="#FCB74F"
	/>
</svg>