<svg xmlns="http://www.w3.org/2000/svg" width="19" height="14" viewBox="0 0 19 14" fill="none">
	<path d="M9.21667 0.0234375C8.56334 0.0234375 8.05001 0.536771 8.05001 1.1901V7.91011C8.05001 8.65677 7.98001 9.28678 7.84001 9.80011C7.70001 10.3134 7.51334 10.7101 7.25667 11.0368C7.00001 11.3401 6.69667 11.5734 6.34667 11.6901C5.99667 11.8301 5.62334 11.8768 5.20334 11.8768C4.78334 11.8768 4.41001 11.8068 4.06001 11.6901C3.73334 11.5501 3.43001 11.3401 3.19667 11.0368C2.96334 10.7334 2.75334 10.3134 2.63667 9.80011C2.49667 9.28678 2.42667 8.65677 2.42667 7.91011V1.23677C2.42667 0.560107 1.89 0.0234375 1.21334 0.0234375C0.53667 0.0234375 0 0.560107 0 1.23677V7.72344C0 8.86678 0.116668 9.82344 0.373335 10.6168C0.606669 11.4101 0.956669 12.0634 1.42334 12.5534C1.86667 13.0668 2.42667 13.4168 3.05667 13.6501C3.68667 13.8834 4.41001 14.0001 5.20334 14.0001C5.99668 14.0001 6.72 13.8834 7.35001 13.6501C7.60667 13.5568 7.84001 13.4401 8.05001 13.3234C8.40001 13.1134 8.70334 12.8568 8.98334 12.5534C9.42667 12.0401 9.77668 11.4101 10.01 10.6168C10.2433 9.82344 10.36 8.86678 10.36 7.72344V1.1901C10.3833 0.536771 9.87001 0.0234375 9.21667 0.0234375Z"/>
	<path d="M17.5915 13.6614C17.0717 14.0513 16.0195 12.9552 16.0195 12.3232V1.15107C16.0195 0.519112 16.5301 0 17.1798 0C17.8296 0 18.3401 0.519112 18.3401 1.15107V12.3232C18.3401 13.5117 18.1904 13.2123 17.5915 13.6614Z"/>
	<path d="M17.8267 13.7897C17.29 14.1631 16.5667 14.0231 16.2167 13.4864L8.28335 1.84306C7.91002 1.30639 8.05003 0.583062 8.58669 0.233062C9.12336 -0.140272 9.84669 -0.000267239 10.1967 0.5364L18.13 12.1797C18.48 12.6931 18.34 13.4164 17.8267 13.7897Z"/>
</svg>
