<svg xmlns="http://www.w3.org/2000/svg" width="136" height="109" viewBox="0 0 136 109" fill="none">
	<path
		d="M115.398 79.3141C111.996 55.5201 92.0383 37.3912 67.9986 37.3912C43.9589 37.3912 24.0015 55.52 20.5996 79.0875H115.398V79.3141Z"
		fill="#428BC1"
	/>
	<path
		d="M135.582 33.9921C134.674 29.9131 132.18 26.7405 128.551 24.701C126.964 23.7946 125.149 23.3414 123.335 23.1148C121.747 22.8882 120.16 23.1148 118.572 23.568C115.851 24.2478 113.129 25.6075 110.635 26.7405C107.233 28.3268 104.058 29.9131 101.11 29.9131V40.3372C106.326 40.3372 111.088 38.071 115.171 36.0316C119.48 33.9921 122.201 32.6324 123.789 33.5388C124.923 34.2187 125.603 35.1251 125.83 36.2582C126.056 37.6178 126.056 39.4307 125.603 41.4702C125.149 43.7363 124.015 46.229 122.655 49.1749C119.933 54.8402 116.305 60.2788 113.583 64.3578C112.676 65.9441 111.769 67.3038 111.088 68.2102L110.408 69.5699C110.408 69.7965 110.181 69.7965 110.181 70.0231H26.2691C26.2691 69.7965 26.0424 69.7965 26.0424 69.5699L25.362 68.2102C24.6816 67.0772 23.7745 65.7175 22.8673 64.3578C20.1458 60.2788 16.5172 54.8402 13.7957 49.1749C12.435 46.229 11.5278 43.7363 10.8475 41.4702C10.3939 39.2041 10.1671 37.3912 10.6207 36.2582C10.8475 35.1251 11.5278 34.2187 12.6618 33.5388C14.2493 32.6324 16.9708 33.7655 21.2798 36.0316C25.362 38.071 29.8978 40.3372 35.3407 40.3372V29.9131C32.3925 29.9131 29.2174 28.3268 25.8156 26.7405C23.3209 25.3809 20.5994 24.2478 17.8779 23.568C15.8368 23.1148 14.2493 22.8882 12.6618 23.1148C10.8475 23.3414 9.03315 23.7946 7.44563 24.701C3.817 26.7405 1.32231 30.1397 0.415156 33.9921C-0.718791 39.2041 0.415156 45.7758 4.49736 53.9338C7.44563 60.0522 11.301 65.9441 14.2493 70.2497C15.1565 71.6094 16.0636 72.969 16.5172 73.8755C16.744 74.3287 16.9708 74.7819 17.4244 75.2351C18.7851 77.2746 19.6922 78.8609 20.1458 80.6738V106.281C19.4655 106.281 19.0119 106.734 19.0119 107.64C19.0119 108.32 19.4655 109 20.1458 109H116.078C116.758 109 117.212 108.547 117.212 107.64C117.212 106.961 116.758 106.281 116.078 106.281V80.9004C116.758 79.0875 117.665 77.5012 118.799 75.4617C119.026 75.0085 119.253 74.5553 119.706 74.1021C120.16 73.1956 121.067 71.836 121.974 70.4763C124.696 66.1707 128.551 60.2788 131.726 54.1604C135.582 46.0024 136.716 39.4307 135.582 33.9921Z"
		fill="#FCB74F"
	/>
	<path
		d="M70.0405 43.7362C71.1744 47.362 65.5047 52.8006 57.3403 55.5199C49.1759 58.4659 41.465 57.786 40.1043 54.1603C38.9704 50.5345 44.6401 45.0959 52.8045 42.3766C60.9689 39.6572 68.6798 40.1105 70.0405 43.7362Z"
		fill="#42ADE2"
	/>
	<path d="M62.5537 83.1663H73.4396V107.64H62.5537V83.1663Z" fill="#FCB74F" />
	<path d="M81.1504 83.1663H92.0363V107.64H81.1504V83.1663Z" fill="#FCB74F" />
	<path d="M73.4414 83.1654H81.1522V107.639H73.4414V83.1654Z" fill="#FCB74F" />
	<path d="M99.752 83.1667H107.463V107.641H99.752V83.1667Z" fill="#FCB74F" />
	<path d="M19.9219 83.1669H27.6327V107.641H19.9219V83.1669Z" fill="#FCB74F" />
	<path d="M28.5361 83.1674H43.5042V107.641H28.5361V83.1674Z" fill="#FCB74F" />
	<path
		d="M59.8345 61.185C59.8345 64.5842 53.7112 73.1954 53.7112 73.1954C53.7112 73.1954 47.5879 64.5842 47.5879 61.185C47.5879 57.7859 50.3094 55.0665 53.7112 55.0665C57.113 55.0665 59.8345 57.7859 59.8345 61.185Z"
		fill="#F2B200"
	/>
	<path
		d="M88.1851 61.187C88.1851 64.5861 82.0618 73.1973 82.0618 73.1973C82.0618 73.1973 75.9385 64.5861 75.9385 61.187C75.9385 57.7878 78.66 55.0685 82.0618 55.0685C85.4636 55.0685 88.1851 57.7878 88.1851 61.187Z"
		fill="#F2B200"
	/>
	<path
		d="M82.2874 10.6514L53.7119 10.6514L60.5156 0.000732422L75.0301 0.000732422L82.2874 10.6514Z"
		fill="#66CAF2"
	/>
	<path
		d="M22.8643 56.425C28.3072 51.213 39.1931 48.4937 46.4503 50.5331C40.7806 55.7452 30.1215 58.4645 22.8643 56.425Z"
		fill="#FCB74F"
	/>
	<path
		d="M113.579 56.4259C106.322 58.4653 95.4361 55.746 89.9932 50.534C97.2504 48.4945 108.136 51.2138 113.579 56.4259Z"
		fill="#FCB74F"
	/>
	<path
		d="M55.7471 50.3062C62.324 46.4538 73.4366 46.4538 80.0135 50.3062C73.4366 54.1585 62.5508 54.1585 55.7471 50.3062Z"
		fill="#FCB74F"
	/>
	<path d="M70.2656 0L72.7603 10.6507H82.2855L75.0282 0L70.2656 0Z" fill="#428BC1" />
	<path d="M70.2678 0L65.2784 0L63.2373 10.6507H72.7625L70.2678 0Z" fill="#42ADE2" />
	<path
		d="M65.2782 0.000732422L63.2371 10.6514H53.7119L60.5156 0.000732422L65.2782 0.000732422Z"
		fill="#66CAF2"
	/>
	<path
		d="M21.5059 76.5944C36.9275 75.4614 52.576 75.2347 67.9977 75.2347C83.4193 75.2347 99.0678 75.4614 114.489 76.5944C99.0678 77.7274 83.4193 77.954 67.9977 77.954C52.576 77.7274 36.9275 77.7274 21.5059 76.5944Z"
		fill="#FFDD7D"
	/>
	<path d="M19.9209 83.1663L115.853 83.1663V85.659L19.9209 85.659V83.1663Z" fill="#428BC1" />
	<path
		d="M19.9211 85.6594C20.5473 85.6594 21.055 85.0506 21.055 84.2997C21.055 83.5488 20.5473 82.9401 19.9211 82.9401C19.2948 82.9401 18.7871 83.5488 18.7871 84.2997C18.7871 85.0506 19.2948 85.6594 19.9211 85.6594Z"
		fill="#428BC1"
	/>
	<path
		d="M116.078 85.6579C116.705 85.6579 117.212 85.0492 117.212 84.2983C117.212 83.5473 116.705 82.9386 116.078 82.9386C115.452 82.9386 114.944 83.5473 114.944 84.2983C114.944 85.0492 115.452 85.6579 116.078 85.6579Z"
		fill="#428BC1"
	/>
	<path
		d="M110.409 28.326C109.728 25.8333 108.821 23.5672 107.234 21.5277C105.646 19.4882 103.832 17.6754 101.337 16.3157C99.523 15.4093 97.7086 14.7294 95.6675 14.5028C94.08 14.2762 92.2657 14.5028 90.4514 14.956C87.5031 15.6359 84.5549 17.2221 81.6066 18.5818C80.9262 19.035 80.0191 19.2616 79.1119 19.7148C80.9262 16.0891 82.0602 12.6899 82.0602 10.4238L53.7115 10.4238C53.7115 12.6899 54.8455 16.0891 56.6598 19.7148C55.7526 19.2616 55.0722 19.035 54.1651 18.5818C51.2168 17.2221 48.2686 15.6359 45.3203 14.956C43.506 14.5028 41.6917 14.2762 40.1041 14.5028C38.063 14.7294 36.2487 15.1826 34.4344 16.3157C32.1665 17.6754 30.1254 19.4882 28.5379 21.5277C27.1772 23.5672 26.0432 25.8333 25.3628 28.326C23.7753 34.8977 24.6825 43.2823 28.3111 53.0265C31.0326 60.7313 34.6612 67.0764 36.2487 70.2489H48.2686C47.815 69.3425 47.1346 68.436 46.681 67.5296C46.4542 67.0764 46.0007 66.6231 45.7739 66.1699C41.0113 58.4652 32.8469 41.0162 35.3416 31.0453C36.0219 28.5526 37.1559 26.7398 39.4238 25.6067C40.1041 25.1535 41.0113 24.9269 43.0524 25.3801C45.0935 25.8333 47.3614 26.9664 49.8561 28.326C53.7115 30.3655 58.0205 32.405 62.7831 33.0848V70.4755H72.9886V33.0848C77.7512 32.405 82.0602 30.3655 86.1424 28.326C88.6371 27.193 90.905 25.8333 92.9461 25.3801C94.9872 24.9269 95.8943 25.1535 96.5747 25.6067C98.6158 26.7398 99.9765 28.5526 100.657 31.0453C103.152 41.0162 94.9872 58.2386 90.2246 66.1699C89.9978 66.6231 89.5442 67.0764 89.3174 67.5296C88.6371 68.436 88.1835 69.3425 87.7299 70.2489H99.7497C101.564 67.303 104.966 60.7313 107.687 53.0265C111.089 43.2823 111.996 34.8977 110.409 28.326Z"
		fill="#FCB74F"
	/>
	<path
		d="M67.9992 20.849C64.1438 20.849 60.742 19.2627 58.0205 16.9966C58.7009 21.982 62.7831 25.8344 67.9992 25.8344C72.9886 25.8344 77.2976 21.982 77.978 16.9966C75.2565 19.4893 71.8547 20.849 67.9992 20.849Z"
		fill="#F2B200"
	/>
</svg>