<svg xmlns="http://www.w3.org/2000/svg" width="20" height="10" viewBox="0 0 20 10" fill="none">
	<path d="M20 1.15303C20 1.43996 19.8742 1.69501 19.6226 1.91817L10.8895 9.66525C10.6379 9.88842 10.3504 10 10.027 10C9.7035 10 9.39802 9.88842 9.11051 9.66525L0.377358 1.91817C0.125786 1.69501 0 1.42402 0 1.10521C0 0.786397 0.125786 0.53135 0.377358 0.340064C0.628931 0.148778 0.916442 0.0371945 1.23989 0.0053135C1.56334 -0.0265675 1.85085 0.0850159 2.10243 0.340064L9.97305 7.322L17.8437 0.340064C18.0952 0.116897 18.4007 0.0053135 18.7601 0.0053135C19.1195 0.0053135 19.407 0.116897 19.6226 0.340064C19.8742 0.626993 20 0.897981 20 1.15303Z" fill="#DEDEDE"/>
</svg>