<svg xmlns="http://www.w3.org/2000/svg" width="21" height="23" viewBox="0 0 21 23" fill="none">
<path fill-rule="evenodd" clip-rule="evenodd" d="M3.90628 9.11465V6.51047C3.90628 2.91484 6.82112 0 10.4167 0C14.0124 0 16.9272 2.91484 16.9272 6.51047V9.11465H18.2293C19.6676 9.11465 20.8335 10.2806 20.8335 11.7188V19.5314C20.8335 20.9697 19.6676 22.1356 18.2293 22.1356H2.60419C1.16593 22.1356 0 20.9697 0 19.5314V11.7188C0 10.2806 1.16593 9.11465 2.60419 9.11465H3.90628ZM10.4167 2.60419C8.25937 2.60419 6.51047 4.35309 6.51047 6.51047V9.11465H14.323V6.51047C14.323 4.35309 12.5741 2.60419 10.4167 2.60419Z" fill="#FF0707"/>
</svg>