<svg width="24" height="24" viewBox="0 0 24 24" fill="none" xmlns="http://www.w3.org/2000/svg">
<g clip-path="url(#clip0_3595_30041)">
<path d="M12 22.5C9.21523 22.5 6.54451 21.3938 4.57538 19.4246C2.60625 17.4555 1.5 14.7848 1.5 12C1.5 9.21523 2.60625 6.54451 4.57538 4.57538C6.54451 2.60625 9.21523 1.5 12 1.5C14.7848 1.5 17.4555 2.60625 19.4246 4.57538C21.3938 6.54451 22.5 9.21523 22.5 12C22.5 14.7848 21.3938 17.4555 19.4246 19.4246C17.4555 21.3938 14.7848 22.5 12 22.5ZM12 24C15.1826 24 18.2348 22.7357 20.4853 20.4853C22.7357 18.2348 24 15.1826 24 12C24 8.8174 22.7357 5.76516 20.4853 3.51472C18.2348 1.26428 15.1826 0 12 0C8.8174 0 5.76516 1.26428 3.51472 3.51472C1.26428 5.76516 0 8.8174 0 12C0 15.1826 1.26428 18.2348 3.51472 20.4853C5.76516 22.7357 8.8174 24 12 24Z" fill="#AA6F4F"/>
<path d="M17.4392 14.2359C17.0976 11.4839 14.8398 9.35357 12.0744 9.3071C9.30906 9.26064 6.97543 11.3138 6.53487 14.0265L17.4397 14.2097L17.4392 14.2359Z" fill="#428BC1"/>
<path d="M19.8555 9.04435C19.7596 8.57194 19.4793 8.20107 19.0661 7.95873C18.8854 7.85108 18.6777 7.79527 18.4695 7.76564C18.2874 7.73643 18.1043 7.75951 17.9207 7.80874C17.6062 7.8819 17.2903 8.03352 17.001 8.15945C16.6063 8.3359 16.2378 8.51279 15.8987 8.50709L15.8769 9.70985C16.4768 9.71991 17.0294 9.46764 17.5033 9.24023C18.0032 9.01322 18.3191 8.8616 18.4998 8.96925C18.6289 9.04991 18.7052 9.15579 18.729 9.28697C18.7522 9.44429 18.7484 9.65346 18.692 9.88789C18.6351 10.1485 18.4994 10.4339 18.3367 10.7712C18.0119 11.4196 17.5831 12.0401 17.2615 12.5055C17.1539 12.6868 17.0466 12.8419 16.9665 12.9452L16.8854 13.1007C16.8849 13.1269 16.8588 13.1264 16.8583 13.1526L7.20575 12.9905C7.20622 12.9643 7.18014 12.9639 7.18062 12.9377L7.10519 12.7795C7.02928 12.6475 6.9278 12.4888 6.82628 12.3302C6.52175 11.8543 6.1157 11.2198 5.81449 10.5608C5.66411 10.2183 5.56497 9.92894 5.49144 9.66616C5.444 9.40381 5.42169 9.1942 5.47624 9.06434C5.5047 8.93405 5.58485 8.83077 5.71671 8.75452C5.90122 8.65301 6.21192 8.78899 6.70285 9.05879C7.16817 9.30199 7.6852 9.57224 8.31131 9.58276L8.3331 8.38C7.99395 8.3743 7.63203 8.18514 7.24403 7.99554C6.9599 7.83383 6.64921 7.69785 6.33757 7.61414C6.10373 7.5579 5.92158 7.5287 5.73849 7.55177C5.52932 7.57441 5.31967 7.6232 5.13516 7.72472C4.71349 7.95303 4.41941 8.34041 4.30701 8.78316C4.16568 9.38234 4.28239 10.1428 4.73493 11.092C5.06129 11.8036 5.49248 12.4908 5.82261 12.9934C5.92412 13.152 6.02564 13.3106 6.07594 13.4161C6.10106 13.4688 6.1262 13.5216 6.17745 13.5747C6.3297 13.8127 6.43074 13.9975 6.47913 14.2075L6.42561 17.1621C6.34735 17.1608 6.29425 17.2122 6.29233 17.3168C6.29093 17.3952 6.34167 17.4746 6.41994 17.4759L17.4552 17.6612C17.5334 17.6625 17.5866 17.6112 17.5885 17.5065C17.5899 17.4281 17.5391 17.3488 17.4609 17.3475L17.5138 14.419C17.5959 14.2112 17.7036 14.0299 17.8383 13.7968C17.8654 13.7449 17.8923 13.693 17.9455 13.6416C17.9996 13.5379 18.1067 13.3828 18.214 13.2277C18.536 12.7361 18.9918 12.0638 19.3698 11.3639C19.8304 10.4301 19.9746 9.67405 19.8555 9.04435Z" fill="#AA6F4F"/>
<path d="M12.296 10.0429C12.4188 10.4634 11.7552 11.08 10.8104 11.378C9.86506 11.7021 8.97949 11.6088 8.83055 11.1878C8.70768 10.7673 9.37124 10.1507 10.3161 9.8527C11.2609 9.55472 12.147 9.6219 12.296 10.0429Z" fill="#42ADE2"/>
<path d="M11.3522 14.577L12.6045 14.598L12.5533 17.4219L11.3011 17.4008L11.3522 14.577Z" fill="#AA6F4F"/>
<path d="M13.4915 14.6131L14.7437 14.6342L14.6926 17.458L13.4403 17.4369L13.4915 14.6131Z" fill="#AA6F4F"/>
<path d="M12.6048 14.5982L13.4918 14.6131L13.4406 17.4369L12.5536 17.422L12.6048 14.5982Z" fill="#AA6F4F"/>
<path d="M15.631 14.649L16.518 14.6639L16.4669 17.4878L15.5799 17.4729L15.631 14.649Z" fill="#AA6F4F"/>
<path d="M6.44803 14.4957L7.33503 14.5106L7.2839 17.3344L6.3969 17.3195L6.44803 14.4957Z" fill="#AA6F4F"/>
<path d="M7.43947 14.5115L9.16128 14.5404L9.11012 17.3643L7.38831 17.3354L7.43947 14.5115Z" fill="#AA6F4F"/>
<path d="M11.0852 12.0359C11.0781 12.4281 10.3557 13.4099 10.3557 13.4099C10.3557 13.4099 9.66936 12.4044 9.67646 12.0122C9.68357 11.62 10.0023 11.3115 10.3936 11.3181C10.7849 11.3246 11.0923 11.6437 11.0852 12.0359Z" fill="#AA6F4F"/>
<path d="M14.3466 12.0915C14.3395 12.4837 13.6172 13.4655 13.6172 13.4655C13.6172 13.4655 12.9307 12.4601 12.9378 12.0679C12.9449 11.6757 13.2637 11.3672 13.6549 11.3737C14.0463 11.3803 14.3537 11.6993 14.3466 12.0915Z" fill="#AA6F4F"/>
<path d="M13.7738 6.24973L10.4867 6.19452L11.2916 4.97876L12.9612 5.00682L13.7738 6.24973Z" fill="#66CAF2"/>
<path d="M6.84274 11.4167C7.47975 10.8259 8.73766 10.5331 9.56821 10.7825C8.90512 11.3729 7.6733 11.6661 6.84274 11.4167Z" fill="#AA6F4F"/>
<path d="M17.2779 11.5898C16.4388 11.8111 15.1923 11.4763 14.577 10.8644C15.4162 10.6431 16.6627 10.9779 17.2779 11.5898Z" fill="#AA6F4F"/>
<path d="M10.6383 10.7721C11.4029 10.3403 12.6812 10.3618 13.4297 10.819C12.6651 11.2507 11.4128 11.2297 10.6383 10.7721Z" fill="#AA6F4F"/>
<path d="M12.4131 4.997L12.6778 6.23072L13.7735 6.24913L12.9609 5.00621L12.4131 4.997Z" fill="#428BC1"/>
<path d="M12.4131 4.99655L11.8392 4.98692L11.5822 6.21187L12.6778 6.23027L12.4131 4.99655Z" fill="#42ADE2"/>
<path d="M11.8393 4.98648L11.5823 6.21143L10.4866 6.19303L11.2915 4.97728L11.8393 4.98648Z" fill="#66CAF2"/>
<path d="M6.64439 13.7393C8.42073 13.6384 10.2213 13.6425 11.9953 13.6723C13.7693 13.7021 15.5689 13.7584 17.3405 13.919C15.5641 14.0199 13.7636 14.0158 11.9896 13.986C10.2161 13.93 8.41601 13.8998 6.64439 13.7393Z" fill="#AA6F4F"/>
<path d="M6.44802 14.4957L17.4832 14.6811L17.478 14.9688L6.44279 14.7834L6.44802 14.4957Z" fill="#428BC1"/>
<path d="M6.44305 14.7831C6.51506 14.7844 6.57474 14.7151 6.57632 14.6284C6.57787 14.5418 6.52076 14.4706 6.44871 14.4694C6.37667 14.4682 6.317 14.5375 6.31544 14.6241C6.31385 14.7107 6.371 14.7819 6.44305 14.7831Z" fill="#428BC1"/>
<path d="M17.5044 14.9687C17.5765 14.9699 17.6362 14.9006 17.6377 14.814C17.6392 14.7273 17.5822 14.6561 17.5101 14.6549C17.4381 14.6537 17.3784 14.723 17.3768 14.8096C17.3753 14.8963 17.4324 14.9675 17.5044 14.9687Z" fill="#428BC1"/>
<path d="M16.9714 8.34157C16.8985 8.05266 16.7988 7.78942 16.6204 7.55104C16.4421 7.31265 16.2371 7.09996 15.9531 6.93827C15.7462 6.83017 15.5389 6.74822 15.3047 6.71815C15.1225 6.68893 14.9133 6.71157 14.7037 6.76035C14.3631 6.83309 14.0206 7.01042 13.6786 7.16161C13.5994 7.21259 13.4946 7.23698 13.3893 7.28753C13.6056 6.87268 13.7431 6.48267 13.7479 6.22121L10.4869 6.16642C10.4821 6.42789 10.6055 6.82228 10.8066 7.24414C10.7032 7.19009 10.6254 7.16263 10.522 7.10858C10.1857 6.94601 9.84987 6.75728 9.51213 6.67314C9.30438 6.61735 9.09616 6.58769 8.91306 6.61077C8.6778 6.63298 8.46814 6.68176 8.25707 6.80899C7.99335 6.96148 7.75476 7.16672 7.56789 7.39897C7.4071 7.63166 7.27193 7.89094 7.18845 8.17724C6.9921 8.93243 7.07893 9.90161 7.47599 11.0329C7.77294 11.9272 8.17709 12.6663 8.35307 13.0354L9.73575 13.0587C9.68546 12.9532 9.60909 12.8473 9.55881 12.7418C9.53367 12.6891 9.48244 12.6359 9.45729 12.5832C8.92555 11.685 8.02284 9.65592 8.33065 8.51028C8.41411 8.22398 8.54835 8.017 8.8116 7.89065C8.8908 7.83967 8.99562 7.81528 9.22947 7.87152C9.46331 7.92775 9.72183 8.06286 10.006 8.22456C10.4452 8.46734 10.9366 8.71099 11.483 8.79862L11.4049 13.1128L12.5789 13.1326L12.657 8.81835C13.2063 8.74911 13.7062 8.52212 14.1801 8.29468C14.4694 8.16878 14.7331 8.01628 14.9688 7.96792C15.2046 7.91958 15.3084 7.94746 15.3858 8.00108C15.6182 8.13577 15.771 8.34757 15.844 8.63648C16.1101 9.79178 15.135 11.7631 14.5705 12.6691C14.5435 12.7209 14.4904 12.7724 14.4634 12.8242C14.3832 12.9275 14.3292 13.0312 14.2751 13.1349L15.6577 13.1581C15.8726 12.8217 16.2777 12.07 16.6068 11.1863C17.0185 10.0686 17.1403 9.10289 16.9714 8.34157Z" fill="#AA6F4F"/>
<path d="M12.109 7.39775C11.6655 7.3903 11.2775 7.2007 10.9692 6.93397C11.0371 7.51051 11.4986 7.96289 12.0986 7.97298C12.6726 7.98262 13.1763 7.54645 13.265 6.97254C12.9467 7.25489 12.5525 7.40519 12.109 7.39775Z" fill="#AA6F4F"/>
</g>
<defs>
<clipPath id="clip0_3595_30041">
<rect width="24" height="24" fill="white"/>
</clipPath>
</defs>
</svg>
