<svg width="88" height="88" viewBox="0 0 88 88" fill="none" xmlns="http://www.w3.org/2000/svg">
<path d="M44 0C19.7384 0 0 19.7384 0 44C0 68.2616 19.7384 88 44 88C68.2616 88 88 68.2616 88 44C88 19.7384 68.2616 0 44 0ZM44 8.8C63.4084 8.8 79.2 24.5916 79.2 44C79.2 63.4084 63.4084 79.2 44 79.2C24.5916 79.2 8.8 63.4084 8.8 44C8.8 24.5916 24.5916 8.8 44 8.8ZM39.6 17.6V22.8336C38.962 23.0646 38.3419 23.3469 37.7523 23.6672C37.1628 23.9875 36.6001 24.3488 36.068 24.75C35.5358 25.1512 35.0384 25.5912 34.5727 26.0648C33.6411 27.012 32.8477 28.0925 32.2352 29.2789C31.9289 29.8721 31.6663 30.4947 31.4531 31.1352C31.0269 32.416 30.8 33.781 30.8 35.2C30.8 36.102 30.8973 36.9841 31.075 37.8383C31.4304 39.5467 32.1224 41.1417 33.0773 42.5477C33.5548 43.2506 34.0935 43.9075 34.693 44.507C35.892 45.706 37.3196 46.6778 38.8953 47.3516C40.4711 48.0253 42.196 48.4 44 48.4C44.627 48.4 45.2145 48.5186 45.7445 48.7352C46.2746 48.9517 46.7435 49.27 47.1367 49.6633C47.53 50.0565 47.8483 50.5254 48.0648 51.0555C48.2814 51.5855 48.4 52.173 48.4 52.8C48.4 54.681 47.3347 56.2152 45.7445 56.8648C45.2145 57.0814 44.627 57.2 44 57.2C43.373 57.2 42.7855 57.0814 42.2555 56.8648C41.7254 56.6483 41.2565 56.33 40.8633 55.9367C40.0768 55.1502 39.6 54.054 39.6 52.8H30.8C30.8 53.5095 30.8608 54.2091 30.9719 54.8883C31.0829 55.5674 31.24 56.2244 31.4531 56.8648C31.6663 57.5053 31.9289 58.1279 32.2352 58.7211C32.5414 59.3143 32.8931 59.8764 33.2836 60.4141C33.6741 60.9517 34.1069 61.4616 34.5727 61.9352C35.0384 62.4088 35.5358 62.8488 36.068 63.25C36.6001 63.6512 37.1628 64.0125 37.7523 64.3328C38.3419 64.6531 38.962 64.9354 39.6 65.1664V70.4H48.4V65.1664C52.866 63.5494 56.2509 59.6424 57.0281 54.8883C57.1392 54.2091 57.2 53.5095 57.2 52.8C57.2 51.898 57.1027 51.0159 56.925 50.1617C56.7473 49.3075 56.4884 48.4832 56.1516 47.6953C55.8147 46.9074 55.4001 46.1553 54.9227 45.4523C54.4452 44.7494 53.9065 44.0925 53.307 43.493C52.7075 42.8935 52.0506 42.3548 51.3477 41.8773C50.6447 41.3999 49.8926 40.9853 49.1047 40.6484C48.3168 40.3116 47.4925 40.0527 46.6383 39.875C45.7841 39.6973 44.902 39.6 44 39.6C43.373 39.6 42.7855 39.4814 42.2555 39.2648C41.7254 39.0483 41.2565 38.73 40.8633 38.3367C40.47 37.9435 40.1517 37.4746 39.9352 36.9445C39.7186 36.4145 39.6 35.827 39.6 35.2C39.6 34.573 39.7186 33.9855 39.9352 33.4555C40.1517 32.9254 40.47 32.4565 40.8633 32.0633C41.2565 31.67 41.7254 31.3517 42.2555 31.1352C42.7855 30.9186 43.373 30.8 44 30.8C46.508 30.8 48.4 32.692 48.4 35.2H57.2C57.2 34.4905 57.1392 33.7909 57.0281 33.1117C56.9171 32.4326 56.76 31.7756 56.5469 31.1352C55.2681 27.2927 52.228 24.2196 48.4 22.8336V17.6H39.6Z" fill="#FCB74F"/>
</svg>
