<svg xmlns="http://www.w3.org/2000/svg" width="20" height="20" viewBox="0 0 20 20" fill="none">
	<g clip-path="url(#clip0_2101_114)">
		<path
			d="M19.2686 6.03578L18.3847 6.92012L13.0807 1.61683L13.9646 0.73241C14.941 -0.244137 16.5244 -0.244137 17.5009 0.73241L19.2686 2.50056C20.2437 3.47657 20.2437 5.05931 19.2686 6.03578ZM6.89308 16.6417C6.64898 16.8858 6.64898 17.2811 6.89308 17.5252C7.1373 17.7707 7.53283 17.7707 7.77693 17.5252L17.5009 7.80392L16.616 6.9195L6.89308 16.6417ZM2.4731 12.2227C2.22889 12.467 2.22889 12.8622 2.4731 13.1065C2.7172 13.3506 3.11273 13.3506 3.35695 13.1065L13.0807 3.3844L12.1971 2.50056L2.4731 12.2227ZM13.9634 4.26759L4.24059 13.9902C3.75236 14.4775 3.7536 15.2697 4.24059 15.7579C4.72903 16.2462 5.51993 16.2485 6.00944 15.7566L15.7323 6.03578L13.9634 4.26759ZM6.00692 18.4068C5.70797 18.1075 5.56387 17.7282 5.51024 17.3373C5.38317 17.3569 5.25518 17.3752 5.12444 17.3752C4.45662 17.3752 3.8294 17.1141 3.35695 16.6417C2.88451 16.168 2.6245 15.5417 2.6245 14.874C2.6245 14.7522 2.64276 14.6335 2.65991 14.5152C2.25584 14.4602 1.88236 14.2832 1.58938 13.9902C1.56127 13.9623 1.55158 13.9244 1.52599 13.8939L0 19.9997L6.08994 18.4752C6.06311 18.4507 6.03273 18.4324 6.00692 18.4068Z" />
	</g>
</svg>