<svg width="120" height="120" viewBox="0 0 120 120" fill="none" xmlns="http://www.w3.org/2000/svg">
<g clip-path="url(#clip0_104_42)">
<path d="M96.3852 78.2716C93.763 59.79 78.3166 45.7176 59.6992 45.7297C41.0817 45.7418 25.6168 59.8345 22.9703 78.1434L96.3851 78.0957L96.3852 78.2716Z" fill="#428BC1"/>
<path d="M112.041 43.0532C111.34 39.8851 109.41 37.4219 106.601 35.8395C105.372 35.1361 103.967 34.785 102.563 34.61C101.333 34.4347 100.103 34.6115 98.874 34.9645C96.7652 35.4938 94.6572 36.5514 92.725 37.4329C90.0894 38.6668 87.6302 39.9008 85.3469 39.9022L85.3416 47.9998C89.3805 47.9969 93.0701 46.2343 96.2327 44.6479C99.5706 43.0613 101.679 42.0037 102.908 42.7072C103.786 43.2347 104.312 43.9385 104.488 44.8186C104.662 45.8746 104.662 47.2829 104.309 48.8673C103.957 50.628 103.077 52.5648 102.022 54.8539C99.9118 59.2563 97.0983 63.4828 94.989 66.6529C94.286 67.8856 93.5823 68.9422 93.0555 69.6468L92.5271 70.7032C92.5272 70.8792 92.3513 70.8793 92.3514 71.0554L27.3671 71.0981C27.3671 70.9223 27.1915 70.9225 27.1917 70.7461L26.6655 69.6903C26.1391 68.8105 25.4374 67.7544 24.7355 66.6989C22.63 63.5318 19.8226 59.3086 17.7179 54.9093C16.6656 52.6215 15.9643 50.6855 15.4386 48.9258C15.0884 47.1656 14.9137 45.7575 15.2655 44.8771C15.4418 43.9968 15.9691 43.2923 16.8476 42.7636C18.0776 42.0587 20.1846 42.9375 23.5204 44.6957C26.6808 46.2778 30.1924 48.0359 34.4075 48.0331L34.4129 39.9356C32.1296 39.9371 29.6715 38.7065 27.0378 37.476C25.1066 36.421 22.9996 35.5423 20.8923 35.0155C19.3118 34.6645 18.0825 34.4893 16.8529 34.6661C15.4478 34.8431 14.0425 35.1961 12.8126 35.901C10.0014 37.4872 8.06774 40.1289 7.3632 43.122C6.48237 47.1713 7.35728 52.2756 10.5144 58.611C12.7946 63.3623 15.7773 67.937 18.0584 71.2804C18.7602 72.3359 19.4621 73.392 19.8129 74.0956C19.9883 74.4477 20.1637 74.7998 20.5148 75.1511C21.5674 76.7349 22.2693 77.9663 22.6196 79.3745L22.6065 99.2666C22.0796 99.2672 21.7283 99.6187 21.7277 100.323C21.7275 100.851 22.0783 101.379 22.6053 101.379L96.8986 101.33C97.4253 101.329 97.7767 100.978 97.777 100.273C97.7774 99.7451 97.4265 99.2174 96.9 99.2175L96.9123 79.5017C97.4405 78.0932 98.1434 76.8607 99.0227 75.2759C99.1991 74.9235 99.3742 74.5714 99.7258 74.2193C100.078 73.515 100.781 72.4582 101.485 71.4015C103.594 68.0554 106.583 63.4766 109.045 58.7221C112.035 52.383 112.916 47.2774 112.041 43.0532Z" fill="#FCB74F"/>
<path d="M61.2792 50.6592C62.1555 53.4751 57.7623 57.7029 51.4381 59.8195C45.1139 62.1119 39.1426 61.5881 38.0907 58.7721C37.2144 55.9561 41.6079 51.7284 47.9321 49.6119C54.2563 47.4953 60.2276 47.8434 61.2792 50.6592Z" fill="#42ADE2"/>
<path d="M55.4612 81.2922L63.8918 81.2868L63.8792 100.298L55.4486 100.303L55.4612 81.2922Z" fill="#FCB74F"/>
<path d="M69.8641 81.2838L78.2942 81.2783L78.2822 100.289L69.8516 100.295L69.8641 81.2838Z" fill="#FCB74F"/>
<path d="M63.8908 81.2837L69.8622 81.2798L69.8502 100.291L63.8786 100.295L63.8908 81.2837Z" fill="#FCB74F"/>
<path d="M84.265 81.2744L90.2364 81.2706L90.2248 100.282L84.2523 100.286L84.265 81.2744Z" fill="#FCB74F"/>
<path d="M22.4444 81.3131L28.4159 81.3093L28.4035 100.321L22.4319 100.325L22.4444 81.3131Z" fill="#FCB74F"/>
<path d="M29.1171 81.3099L40.7088 81.3027L40.6963 100.314L29.1044 100.322L29.1171 81.3099Z" fill="#FCB74F"/>
<path d="M53.3641 64.2167C53.3623 66.8574 48.6158 73.5499 48.6158 73.5499C48.6158 73.5499 43.8782 66.8634 43.8798 64.2233C43.8817 61.5825 45.9907 59.4687 48.6252 59.4669C51.2596 59.4654 53.3658 61.5765 53.3641 64.2167Z" fill="#F2B200"/>
<path d="M75.3221 64.2056C75.3205 66.846 70.5743 73.5385 70.5743 73.5385C70.5743 73.5385 65.8361 66.8525 65.8378 64.2117C65.8393 61.5713 67.9486 59.4576 70.5825 59.4557C73.2176 59.4541 75.3242 61.5652 75.3221 64.2056Z" fill="#F2B200"/>
<path d="M70.7793 24.9502L48.649 24.9646L53.9234 16.6876L65.1639 16.6802L70.7793 24.9502Z" fill="#66CAF2"/>
<path d="M24.7363 60.539C28.9541 56.4878 37.386 54.3698 43.0052 55.9504C38.6116 60.0022 30.3555 62.12 24.7363 60.539Z" fill="#FCB74F"/>
<path d="M94.9913 60.4928C89.3701 62.0809 80.9413 59.9741 76.7286 55.928C82.3504 54.3402 90.7791 56.447 94.9913 60.4928Z" fill="#FCB74F"/>
<path d="M50.2077 55.7659C55.303 52.77 63.9092 52.7643 69.0003 55.7534C63.9051 58.7494 55.4747 58.755 50.2077 55.7659Z" fill="#FCB74F"/>
<path d="M61.4746 16.6824L63.4011 24.9547L70.7775 24.9498L65.1629 16.68L61.4746 16.6824Z" fill="#428BC1"/>
<path d="M61.4769 16.6797L57.6129 16.6822L56.0268 24.9568L63.4034 24.952L61.4769 16.6797Z" fill="#42ADE2"/>
<path d="M57.612 16.6839L56.0259 24.9585L48.6493 24.9634L53.9237 16.6863L57.612 16.6839Z" fill="#66CAF2"/>
<path d="M23.6757 76.2057C35.6194 75.3176 47.7381 75.1339 59.6811 75.1257C71.6245 75.1182 83.7428 75.2861 95.685 76.1583C83.7419 77.0465 71.6227 77.2301 59.6797 77.2383C47.7368 77.0701 35.6182 77.0779 23.6757 76.2057Z" fill="#FFDD7D"/>
<path d="M22.4442 81.3143L96.7369 81.2661L96.7356 83.2023L22.4427 83.2515L22.4442 81.3143Z" fill="#428BC1"/>
<path d="M22.4438 83.25C22.9285 83.2507 23.3221 82.777 23.3226 82.1933C23.3228 81.6107 22.9301 81.1375 22.445 81.138C21.96 81.1384 21.5666 81.6115 21.5662 82.1947C21.5657 82.7784 21.9587 83.2505 22.4438 83.25Z" fill="#428BC1"/>
<path d="M96.9097 83.1999C97.3949 83.1995 97.7885 82.7265 97.7886 82.1432C97.7888 81.56 97.3961 81.0875 96.911 81.0873C96.4263 81.0878 96.0327 81.5609 96.0324 82.1447C96.0317 82.7278 96.4249 83.2004 96.9097 83.1999Z" fill="#428BC1"/>
<path d="M92.5482 38.6666C92.023 36.7307 91.3215 34.9707 90.0928 33.3872C88.8642 31.8037 87.4603 30.3964 85.5295 29.3416C84.1243 28.6382 82.7197 28.1111 81.1393 27.9361C79.9102 27.761 78.5048 27.9379 77.0995 28.2909C74.8159 28.8205 72.5321 30.0542 70.2482 31.112C69.7206 31.4643 69.0183 31.6408 68.3154 31.9934C69.7224 29.1759 70.6024 26.5348 70.6032 24.7745L48.6492 24.7889C48.648 26.5492 49.5244 29.1891 50.9277 32.0047C50.2253 31.6531 49.6986 31.4774 48.9962 31.1258C46.7137 30.0711 44.4313 28.8404 42.1484 28.3138C40.7436 27.9627 39.3386 27.7876 38.1091 27.9644C36.5283 28.1415 35.1229 28.4944 33.7173 29.3755C31.9603 30.4329 30.3786 31.8422 29.1482 33.4273C28.0933 35.0123 27.2141 36.7732 26.6858 38.7099C25.453 43.8156 26.1513 50.3284 28.9565 57.8962C31.0602 63.8799 33.8671 68.8065 35.0949 71.2706L44.4035 71.2642C44.0526 70.5606 43.5263 69.8566 43.1755 69.153C43.0001 68.8009 42.649 68.449 42.4736 68.0969C38.7892 62.1144 32.4753 48.564 34.4123 40.8172C34.9405 38.8805 35.8196 37.4716 37.5765 36.5904C38.1036 36.2379 38.8063 36.0614 40.3867 36.4125C41.9672 36.7635 43.723 37.6425 45.6543 38.6974C48.639 40.2798 51.9751 41.8619 55.663 42.3876L55.6442 71.4327L63.5476 71.4279L63.5665 42.3824C67.255 41.8518 70.5934 40.2654 73.7555 38.6789C75.6882 37.7976 77.4456 36.7403 79.0257 36.387C80.6069 36.034 81.3094 36.2096 81.8362 36.5613C83.4163 37.4404 84.4695 38.8481 84.9947 40.7839C86.9218 48.5282 80.59 61.9108 76.8973 68.0744C76.7217 68.4263 76.3705 68.7791 76.1948 69.1311C75.6669 69.8355 75.3159 70.5401 74.9639 71.2444L84.2724 71.238C85.6791 68.9488 88.3168 63.8421 90.4282 57.8556C93.0677 50.2845 93.7745 43.7708 92.5482 38.6666Z" fill="#FCB74F"/>
<path d="M59.7097 32.8833C56.7239 32.8852 54.0902 31.6547 51.9838 29.8958C52.5081 33.7682 55.6676 36.7586 59.7071 36.756C63.5707 36.7534 66.9096 33.7586 67.4395 29.8857C65.3302 31.8233 62.6951 32.8812 59.7097 32.8833Z" fill="#F2B200"/>
</g>
<defs>
<clipPath id="clip0_104_42">
<rect width="120" height="120" fill="white"/>
</clipPath>
</defs>
</svg>
