<svg width="102" height="69" viewBox="0 0 102 69" fill="none" xmlns="http://www.w3.org/2000/svg">
<g clip-path="url(#clip0_448_252)">
<path d="M10.7188 13.985V34.478H5.88184V13.985H10.7188ZM22.4574 13.985L15.9392 23.1817L22.9883 34.478H17.3844L10.8663 23.5366L17.3549 13.985H22.4574ZM29.1175 18.7756V34.478H24.4575V18.7756H29.1175ZM26.758 10.4956C27.5642 10.4956 28.2229 10.7519 28.7341 11.2645C29.265 11.7573 29.5304 12.3881 29.5304 13.157C29.5304 13.9258 29.265 14.5666 28.7341 15.0791C28.2229 15.572 27.5642 15.8184 26.758 15.8184C25.9518 15.8184 25.2931 15.572 24.7819 15.0791C24.2707 14.5666 24.0151 13.9258 24.0151 13.157C24.0151 12.3881 24.2707 11.7573 24.7819 11.2645C25.2931 10.7519 25.9518 10.4956 26.758 10.4956ZM41.9541 18.2728C43.3109 18.2728 44.3727 18.6868 45.1395 19.5148C45.9063 20.3428 46.2898 21.506 46.2898 23.0043V34.478H41.6297V23.8027C41.6297 23.0141 41.5019 22.472 41.2463 22.1763C41.0103 21.8608 40.6466 21.7031 40.155 21.7031C39.2112 21.7031 38.3067 22.3833 37.4416 23.7436V34.478H32.7815V18.7756H36.8517L37.1761 20.6386C37.8447 19.85 38.5623 19.2586 39.3292 18.8643C40.1157 18.47 40.9907 18.2728 41.9541 18.2728ZM64.2264 19.6923C63.2039 20.1063 61.6997 20.3133 59.7138 20.3133C60.7363 20.747 61.4835 21.2793 61.9554 21.9101C62.4273 22.541 62.6632 23.3591 62.6632 24.3646C62.6632 25.37 62.3978 26.2768 61.8669 27.0851C61.336 27.8737 60.5691 28.4947 59.5664 28.9481C58.5832 29.4016 57.4231 29.6283 56.0861 29.6283C55.4569 29.6283 54.8571 29.5691 54.2869 29.4508C54.1296 29.5297 54.0018 29.6578 53.9035 29.8353C53.8249 29.993 53.7855 30.1606 53.7855 30.338C53.7855 30.6337 53.8937 30.8703 54.11 31.0477C54.3459 31.2054 54.808 31.2843 55.4962 31.2843H57.8557C59.0551 31.2843 60.1071 31.4814 61.0116 31.8757C61.916 32.27 62.6141 32.8121 63.1056 33.5021C63.5972 34.1921 63.843 34.9708 63.843 35.8383C63.843 37.4746 63.1351 38.7461 61.7194 39.653C60.3234 40.5796 58.2981 41.0428 55.6437 41.0428C53.7364 41.0428 52.2322 40.8358 51.1311 40.4218C50.03 40.0276 49.2533 39.4657 48.8011 38.7363C48.3685 38.0068 48.1522 37.0901 48.1522 35.9861H52.3403C52.3403 36.4593 52.4288 36.8338 52.6058 37.1098C52.8024 37.3858 53.1465 37.5928 53.6381 37.7308C54.1296 37.8688 54.8375 37.9378 55.7616 37.9378C57.0397 37.9378 57.9245 37.7801 58.4161 37.4647C58.9077 37.169 59.1534 36.7353 59.1534 36.1636C59.1534 35.6904 58.9666 35.3158 58.5931 35.0398C58.2195 34.7638 57.6591 34.6258 56.9119 34.6258H54.6409C53.0285 34.6258 51.8193 34.34 51.0131 33.7683C50.2266 33.1768 49.8333 32.4277 49.8333 31.5208C49.8333 30.9491 50.0005 30.3971 50.3347 29.8648C50.669 29.3128 51.1212 28.8594 51.6915 28.5046C50.7083 27.9723 49.9906 27.3513 49.5384 26.6416C49.1058 25.9121 48.8895 25.0348 48.8895 24.0097C48.8895 22.2551 49.5187 20.8653 50.7771 19.8401C52.0356 18.7953 53.6971 18.2728 55.7616 18.2728C57.3346 18.3123 58.6619 18.1546 59.7433 17.7997C60.8444 17.4448 61.975 16.9224 63.1351 16.2324L64.2264 19.6923ZM55.8796 21.3483C55.1521 21.3483 54.572 21.5848 54.1395 22.058C53.7265 22.5114 53.5201 23.1423 53.5201 23.9506C53.5201 24.7983 53.7265 25.4587 54.1395 25.9318C54.572 26.3853 55.1521 26.612 55.8796 26.612C56.6465 26.612 57.2265 26.3853 57.6198 25.9318C58.0327 25.4784 58.2391 24.7983 58.2391 23.8914C58.2391 22.196 57.4526 21.3483 55.8796 21.3483Z" fill="#FCB74F"/>
<path d="M36.5063 45.8383C37.5714 45.8383 38.4234 46.1999 39.0625 46.9226C39.7015 47.6291 40.021 48.5902 40.021 49.8058V59.1208H37.7598V50.1262C37.7598 48.4505 37.1536 47.6126 35.941 47.6126C35.302 47.6126 34.7613 47.8016 34.3188 48.1794C33.8764 48.5409 33.4013 49.1158 32.8933 49.9044V59.1208H30.6321V50.1262C30.6321 48.4505 30.0259 47.6126 28.8133 47.6126C28.1579 47.6126 27.609 47.8016 27.1666 48.1794C26.7242 48.5573 26.2572 49.1324 25.7656 49.9044V59.1208H23.5044V46.1341H25.4461L25.6427 48.0316C26.6095 46.5695 27.8548 45.8383 29.3786 45.8383C30.1816 45.8383 30.8615 46.0437 31.4186 46.4544C31.9921 46.8652 32.4017 47.4401 32.6475 48.1794C33.1556 47.4237 33.7126 46.8487 34.3188 46.4544C34.9415 46.0437 35.6707 45.8383 36.5063 45.8383ZM49.445 45.8383C51.2638 45.8383 52.6728 46.4463 53.6724 47.6619C54.6882 48.8777 55.1963 50.5287 55.1963 52.6151C55.1963 53.9624 54.9668 55.1533 54.5081 56.1883C54.0492 57.207 53.3856 58.0038 52.5172 58.5787C51.6488 59.1374 50.6165 59.4166 49.4204 59.4166C47.6016 59.4166 46.1842 58.8087 45.1683 57.593C44.1524 56.3774 43.6445 54.7263 43.6445 52.6398C43.6445 51.2927 43.8738 50.1098 44.3327 49.0912C44.7914 48.0562 45.455 47.2595 46.3235 46.7008C47.1919 46.1259 48.2324 45.8383 49.445 45.8383ZM49.445 47.6619C47.2001 47.6619 46.0777 49.3212 46.0777 52.6398C46.0777 55.9419 47.1919 57.593 49.4204 57.593C51.6488 57.593 52.763 55.9338 52.763 52.6151C52.763 49.313 51.657 47.6619 49.445 47.6619ZM68.3475 46.1341L63.948 59.1208H61.2198L56.7466 46.1341H59.2044L62.5962 57.1001L65.9634 46.1341H68.3475ZM73.1941 46.1341V59.1208H70.9329V46.1341H73.1941ZM72.0389 39.8994C72.5142 39.8994 72.8992 40.0473 73.1941 40.343C73.4891 40.6387 73.6365 41.0083 73.6365 41.4519C73.6365 41.8955 73.4891 42.2651 73.1941 42.5608C72.8992 42.8402 72.5142 42.9798 72.0389 42.9798C71.5802 42.9798 71.2033 42.8402 70.9083 42.5608C70.6134 42.2651 70.4659 41.8955 70.4659 41.4519C70.4659 41.0083 70.6134 40.6387 70.9083 40.343C71.2033 40.0473 71.5802 39.8994 72.0389 39.8994ZM87.6517 52.2455C87.6517 52.6234 87.6354 53.0094 87.6025 53.4037H79.3442C79.4425 54.833 79.8031 55.8845 80.4257 56.558C81.0484 57.2316 81.8512 57.5683 82.8344 57.5683C83.457 57.5683 84.0306 57.478 84.5548 57.2973C85.0792 57.1166 85.6282 56.8291 86.2016 56.4348L87.1847 57.7901C85.8083 58.8744 84.3009 59.4166 82.6623 59.4166C80.86 59.4166 79.4508 58.8251 78.4348 57.6423C77.4354 56.4594 76.9356 54.833 76.9356 52.763C76.9356 51.4159 77.1485 50.2248 77.5746 49.1898C78.017 48.1384 78.6397 47.3169 79.4425 46.7255C80.2619 46.1341 81.2204 45.8383 82.3182 45.8383C84.0387 45.8383 85.3578 46.4051 86.2753 47.5387C87.1929 48.6723 87.6517 50.2413 87.6517 52.2455ZM85.4151 51.5801C85.4151 50.2987 85.1612 49.3212 84.6531 48.6476C84.1452 47.9741 83.3833 47.6373 82.3674 47.6373C80.5159 47.6373 79.508 49.0009 79.3442 51.728H85.4151V51.5801ZM94.7776 45.8383C95.6624 45.8383 96.457 45.9616 97.1617 46.208C97.8662 46.4544 98.538 46.8241 99.1771 47.3169L98.2185 48.7462C97.6286 48.3684 97.0633 48.0891 96.5226 47.9083C95.9982 47.7277 95.4412 47.6373 94.8513 47.6373C94.1139 47.6373 93.5322 47.7934 93.1062 48.1055C92.6802 48.4012 92.4672 48.812 92.4672 49.3376C92.4672 49.8634 92.6638 50.2741 93.0571 50.5698C93.4667 50.8655 94.1958 51.1531 95.2445 51.4323C96.6864 51.7938 97.7597 52.2866 98.4643 52.9108C99.1852 53.5352 99.5458 54.3894 99.5458 55.4737C99.5458 56.7551 99.046 57.7327 98.0465 58.4062C97.0633 59.0798 95.859 59.4166 94.4335 59.4166C92.4672 59.4166 90.8368 58.8498 89.5424 57.7162L90.7467 56.3362C91.8445 57.1741 93.0571 57.593 94.3843 57.593C95.2363 57.593 95.9082 57.4205 96.3997 57.0755C96.9076 56.7141 97.1617 56.2295 97.1617 55.6216C97.1617 55.178 97.0715 54.8249 96.8913 54.5619C96.711 54.2827 96.3997 54.0444 95.9573 53.8473C95.5149 53.6337 94.8676 53.412 94.0156 53.1819C92.6392 52.8205 91.6396 52.3359 91.0171 51.728C90.4107 51.1202 90.1077 50.348 90.1077 49.4116C90.1077 48.7381 90.3043 48.1301 90.6976 47.588C91.1072 47.0295 91.6642 46.6023 92.3689 46.3066C93.0898 45.9945 93.8927 45.8383 94.7776 45.8383Z" fill="#DEDEDE"/>
<g clip-path="url(#clip1_448_252)">
<mask id="mask0_448_252" style="mask-type:luminance" maskUnits="userSpaceOnUse" x="-5" y="0" width="27" height="24">
<path d="M-4.89001 7.64732L15.6929 0.155762L21.5196 16.1647L0.936755 23.6562L-4.89001 7.64732Z" fill="white"/>
</mask>
<g mask="url(#mask0_448_252)">
<path d="M2.24126 17.7857C2.39332 17.8426 2.5329 17.9414 2.61133 18.0756C2.73172 18.0149 2.85847 17.9819 2.98547 17.9749C3.14099 17.9651 3.29935 17.9934 3.44445 18.0566C3.33131 17.5068 3.49722 16.8087 3.76068 16.3836C3.39327 15.8572 3.3232 15.1309 3.83775 14.6687C3.85863 14.6498 3.88252 14.6393 3.90723 14.6359C3.89844 14.4035 3.94995 14.179 4.08618 13.9685C3.83156 13.2945 3.63837 12.5755 3.52248 11.8453C3.51354 11.8411 3.5052 11.8385 3.4983 11.8298C2.9692 11.3267 2.59688 10.6393 2.26773 9.9942C2.20913 9.87899 2.40584 9.77374 2.46603 9.88836C2.74597 10.4186 3.09822 10.8627 3.45273 11.3284C3.37155 10.5818 3.37396 9.83094 3.47628 9.10547C3.49266 8.99291 3.67623 8.99903 3.67813 9.11616C3.68644 10.7047 3.85151 12.18 4.33262 13.69C4.50591 13.5409 4.72741 13.4172 4.94329 13.4004C4.64089 12.6052 5.33747 11.9721 6.09868 11.7099C6.42175 11.5961 6.75745 11.5525 7.0323 11.5909C7.14459 11.391 7.31748 11.2458 7.54292 11.1638C7.7053 11.1065 7.96789 11.0502 8.1428 11.1343C8.14373 10.8216 8.41142 10.5709 8.69258 10.4386C9.13118 10.2303 9.65061 10.2545 10.082 10.479C10.2927 9.92912 11.069 9.27629 11.5322 9.69493C11.6629 9.5913 11.8618 9.54315 12.0316 9.56739C12.0243 9.23716 12.5392 8.8777 12.7708 8.7616C13.1798 8.5585 13.8213 8.57748 14.0248 9.05515C14.1802 9.00421 14.3642 9.00643 14.5237 9.03813C14.6388 8.71382 15.0122 8.49937 15.3357 8.4527C15.743 8.39234 16.1663 8.56929 16.4186 8.89643C16.425 8.8885 16.4314 8.88056 16.4416 8.8731C16.5198 8.81844 16.6025 8.77147 16.6878 8.73108C15.515 7.36444 14.5758 5.85667 13.0819 4.79205C11.5873 3.72578 9.71757 3.2655 7.90974 3.49895C6.09698 3.73421 4.42645 4.6957 3.26744 6.10688C2.11586 7.50787 1.58314 9.28769 1.46463 11.0869C1.31529 13.3201 1.79635 15.5314 2.24052 17.7074C2.24582 17.7373 2.24608 17.7634 2.24126 17.7857Z" fill="#FF0707"/>
<path d="M4.40968 17.8567C4.52942 18.0993 4.72442 18.264 4.9505 18.3818C4.93013 18.3462 4.91303 18.3094 4.89919 18.2714C4.87018 18.1866 4.98137 18.1312 5.03575 18.1993C5.131 18.3236 5.23212 18.4439 5.3599 18.5357C5.4883 18.6293 5.63544 18.6674 5.77825 18.7295C5.85532 18.7632 5.83436 18.8886 5.75017 18.8912C5.65499 18.894 5.5575 18.8753 5.46441 18.8381C5.5681 19.0061 5.67845 19.1567 5.88353 19.2373C6.18558 19.3555 6.52202 19.2275 6.74502 19.0116C6.74616 18.9588 6.78241 18.9007 6.83019 18.8796C7.02962 18.792 7.26106 18.8331 7.47235 18.7375C7.69386 18.6344 7.89788 18.463 8.03485 18.2597C8.04123 18.2518 8.04717 18.2478 8.0531 18.2437C8.05678 18.2386 8.05942 18.2358 8.06212 18.233L8.06376 18.2324C8.074 18.225 8.08362 18.2158 8.09669 18.2111C8.2992 18.1168 8.51288 18.0988 8.70722 17.972C8.83572 17.8878 8.93885 17.7848 9.03509 17.6731C9.08187 17.6187 9.12813 17.5626 9.17591 17.5059C9.2051 17.4691 9.24222 17.4593 9.27542 17.4641C9.53001 17.4163 9.75293 17.4492 9.9834 17.3149C9.99856 17.3056 10.0153 17.2958 10.0315 17.2843L10.0622 17.2619C10.2356 17.1333 10.3679 16.958 10.4394 16.758C10.278 16.8635 10.0972 16.9312 9.90698 16.9219C9.77745 16.9167 9.72653 16.7464 9.85587 16.6899C10.0379 16.6106 10.2241 16.5783 10.397 16.4686C10.5666 16.3602 10.7074 16.2285 10.8229 16.063C10.8826 15.9777 11.0291 16.0702 10.9774 16.162C10.9242 16.2599 10.8557 16.3615 10.7739 16.4568C11.4787 16.6192 12.0357 16.2481 12.4385 15.662C12.4769 15.605 12.5549 15.6159 12.598 15.6582C12.6063 15.6608 12.6125 15.6623 12.6208 15.6648C12.9903 15.8259 13.3104 15.6888 13.5545 15.4241C13.541 15.4122 13.5263 15.4026 13.5144 15.3901C13.3741 15.2486 13.548 15.03 13.7119 15.1499C14.3845 15.6457 15.1942 15.3435 15.3657 14.5797C15.331 14.5606 15.298 14.5408 15.2696 14.5138C15.2015 14.4488 15.2266 14.3144 15.3328 14.3112C15.3652 14.3088 15.3955 14.3108 15.4259 14.3129C15.4683 14.2768 15.5434 14.2851 15.5823 14.3308C15.679 14.3423 15.7774 14.3533 15.8824 14.3319C16.0044 14.3061 16.1209 14.26 16.2256 14.192C16.2389 14.1778 16.2535 14.1669 16.2715 14.1603C16.3269 14.1196 16.3761 14.0717 16.4191 14.0168C16.4683 13.954 16.58 14.0218 16.5404 14.0961C16.5163 14.1366 16.4922 14.1772 16.4653 14.2151C16.7245 14.3171 17.0522 14.2465 17.207 14.0162C17.2444 13.9614 17.3391 13.9419 17.3974 13.9749C18.1898 14.4084 19.0543 13.774 18.9145 12.8767C18.8982 12.776 19.0672 12.7369 19.0929 12.8379C19.1161 12.9323 19.1294 13.0247 19.1344 13.1146C19.2388 13.0354 19.349 12.9673 19.412 12.8302C19.506 12.6258 19.4458 12.4401 19.441 12.2287C19.4394 12.2143 19.4444 12.1975 19.4506 12.184C19.4476 12.1758 19.4446 12.1676 19.441 12.1576C19.3834 11.7148 19.4382 11.3264 19.1979 10.9202C19.023 10.6229 18.7535 10.4516 18.505 10.2316C18.4609 10.2271 18.4198 10.2009 18.4075 10.1568C18.2949 9.75079 18.2627 9.38283 17.8969 9.10456C17.5176 8.81995 16.9628 8.81053 16.5631 9.04951C16.5263 9.07039 16.4921 9.06786 16.463 9.05417C16.4328 9.16429 16.2966 9.24751 16.201 9.14766C15.9699 8.89891 15.6889 8.73187 15.338 8.7997C15.0801 8.8487 14.9249 9.01182 14.752 9.17754C14.7641 9.26665 14.6909 9.37559 14.5845 9.35263C14.4675 9.32601 14.3545 9.30543 14.2343 9.31552C14.1211 9.32491 14.0116 9.36474 13.8981 9.36306C13.8348 9.36179 13.7779 9.30209 13.7854 9.2414C13.5748 8.96271 13.3061 8.89032 12.9713 9.01779C12.698 9.12099 12.2577 9.38038 12.3454 9.72808C12.3673 9.81363 12.2914 9.8899 12.214 9.86008C12.1978 9.87157 12.1788 9.88036 12.1552 9.88148C12.0484 9.88297 11.952 9.84693 11.8421 9.87017C11.7392 9.89263 11.6559 9.95847 11.5578 9.99415C11.5317 10.0037 11.5069 10.0015 11.4835 9.9932C11.479 9.99107 11.4741 9.99287 11.468 9.99135C10.8192 9.78986 10.5171 10.3374 10.1733 10.7805C10.1431 10.8196 10.0791 10.8167 10.0467 10.7836C10.0204 10.7875 9.98946 10.7838 9.95754 10.7674C9.42118 10.5137 8.45901 10.5442 8.35918 11.2968C8.35107 11.3558 8.29406 11.3822 8.24318 11.3745C8.23252 11.3859 8.21796 11.3968 8.20225 11.4044C8.03995 11.4822 7.82878 11.4001 7.64888 11.4599C7.45042 11.5247 7.27676 11.6627 7.15466 11.8306C7.11499 11.8843 7.05431 11.8802 7.01253 11.8468C6.84194 11.8864 6.66984 11.9117 6.50008 11.9435C6.23734 11.9943 5.98278 12.0626 5.7491 12.2187C5.32495 12.5022 5.16827 12.9257 5.15645 13.4219C5.1587 13.423 5.16035 13.4224 5.16419 13.4228C5.27055 13.3542 5.38802 13.3058 5.51512 13.2839C5.65649 13.2605 5.7042 13.4881 5.5684 13.5319C5.21514 13.6493 4.96952 13.864 4.84402 14.2257C4.81264 14.3176 4.68155 14.2624 4.69047 14.175C4.70497 14.037 4.75041 13.9026 4.82003 13.7837C4.81185 13.7867 4.80311 13.788 4.79329 13.7916C4.62947 13.855 4.48187 13.9629 4.371 14.1005C4.18105 14.3361 4.09493 14.6891 4.13379 14.9892C4.14709 15.0816 4.00159 15.1139 3.97242 15.0236C3.54617 15.5453 3.97605 16.1163 4.29925 16.6028C4.37572 16.5993 4.45729 16.6556 4.43366 16.7484C4.33832 17.1422 4.21202 17.4611 4.40804 17.8573L4.40968 17.8567Z" fill="white"/>
<path d="M0.654929 20.8241C0.637317 20.9689 0.653261 21.094 0.690423 21.2114C0.707015 21.2315 0.717649 21.2557 0.71747 21.2857C0.776897 21.4286 0.866334 21.5625 0.964283 21.7045C1.03801 21.8105 0.908219 21.9064 0.814446 21.847C0.763915 21.8149 0.722567 21.7775 0.683302 21.7358C0.696677 21.8132 0.722091 21.8881 0.773386 21.9629C0.889297 22.134 1.057 22.1982 1.23925 22.2516C1.28749 22.2265 1.34536 22.2279 1.38969 22.2735C1.4806 22.3657 1.58693 22.4392 1.7145 22.4694C1.81991 22.4947 1.92831 22.4926 2.03485 22.5006C2.04361 22.4993 2.05239 22.498 2.06176 22.4983C2.29017 22.5311 2.42473 22.7178 2.6837 22.6871C2.94431 22.6558 3.15041 22.4443 3.22549 22.1982L3.22385 22.1988C3.2015 22.1882 3.18673 22.173 3.17298 22.1556C3.0394 22.2715 2.8538 22.397 2.6767 22.368C2.61198 22.3579 2.57565 22.2682 2.62201 22.2177C2.73194 22.1029 2.8997 22.0605 3.0307 21.968C3.19667 21.8496 3.3245 21.7076 3.42139 21.5265C3.47191 21.4315 3.61435 21.4975 3.57278 21.5968C3.52086 21.7185 3.45495 21.8322 3.37666 21.9374C3.63381 21.9729 3.87772 21.972 4.09481 21.7957C4.31619 21.616 4.40703 21.3267 4.4228 21.0498C4.4248 21.0248 4.4396 21.0045 4.4574 20.9924C4.53023 20.7807 4.6805 20.6344 4.69239 20.3925C4.70533 20.1129 4.56942 19.8818 4.39197 19.679C4.3503 19.6306 4.36201 19.5814 4.39625 19.5484C4.38293 19.3288 4.42446 19.1379 4.29207 18.9317C4.19662 18.7813 4.0628 18.7085 3.91872 18.6431C3.86116 18.7239 3.73547 18.7547 3.66441 18.6459C3.54473 18.4594 3.35271 18.3385 3.14415 18.2891C2.98279 18.2525 2.81058 18.2572 2.65296 18.3071C2.61331 18.3608 2.5189 18.3708 2.4627 18.3333C2.29243 18.2214 2.1919 18.0672 1.96932 18.0453C1.73736 18.0231 1.4811 18.1782 1.35375 18.3723C1.34317 18.4042 1.31916 18.4297 1.28648 18.4416C1.16558 18.4856 1.04548 18.4657 0.918994 18.4893C0.726836 18.5256 0.549584 18.6182 0.422532 18.7673C0.204117 19.0263 0.168183 19.4004 0.278519 19.7137C0.299551 19.7714 0.262135 19.8262 0.214325 19.8474C0.206504 20.0242 0.140215 20.1979 0.121992 20.3766C0.119577 20.4055 0.118777 20.4338 0.117996 20.4622C0.117618 20.7204 0.21816 21.0017 0.446032 21.1245C0.439201 21.0092 0.447263 20.8941 0.468889 20.7908C0.493271 20.6697 0.669937 20.7027 0.65553 20.8258L0.654929 20.8241Z" fill="white"/>
<path d="M0.0216868 19.6895C0.0216868 19.6895 0.0303059 19.6827 0.032371 19.6782C-0.112347 19.3212 -0.0898831 18.9203 0.152533 18.6002C0.365381 18.3208 0.855741 18.0413 1.21471 18.1837C1.33657 17.9186 1.56259 17.7466 1.8698 17.7264C1.05925 13.9388 0.277632 9.49356 2.77302 6.16715C5.01028 3.18903 9.19105 2.22093 12.4856 4.02348C14.3157 5.02558 15.8555 6.85154 16.8999 8.64834C17.2714 8.53549 17.6708 8.57531 18.0258 8.80331C18.4033 9.04745 18.7316 9.5582 18.6643 10.0241C19.4549 10.2544 20.0454 11.4701 19.6607 12.1973C19.6607 12.1973 19.6591 12.1979 19.658 12.2002C19.8119 12.4042 19.7981 12.7122 19.7042 12.9371C19.614 13.157 19.3765 13.4397 19.1163 13.4316C18.9789 14.1979 18.1785 14.6725 17.3764 14.3193C17.0839 14.6595 16.6316 14.7231 16.2642 14.4304C16.1841 14.4951 16.0927 14.5489 15.9869 14.5837C15.8762 14.6202 15.7355 14.6453 15.6014 14.638C15.5076 15.5137 14.501 16.0372 13.7501 15.5755C13.5233 15.9946 12.9983 16.1278 12.5475 15.9721C12.2335 16.6904 11.3887 16.9773 10.6479 16.772C10.5926 17.0726 10.4612 17.3467 10.2081 17.5361C9.97497 17.7089 9.60896 17.8421 9.31552 17.7525C9.1095 18.1473 8.59034 18.5307 8.153 18.473C8.03538 18.714 7.86369 18.8981 7.61534 19.024C7.41519 19.1249 7.14325 19.2164 6.91664 19.153C6.69861 19.5148 6.27389 19.6899 5.8536 19.5773C5.48764 19.4767 5.10221 19.099 5.15692 18.6901C4.30638 18.6256 3.61359 17.5051 4.11784 16.7605C4.03954 16.7029 3.967 16.6358 3.90204 16.5641C3.83046 16.8351 3.76484 17.1022 3.74535 17.3841C3.72406 17.6967 3.80268 17.9991 3.79713 18.3042C3.81189 18.3193 3.82444 18.3335 3.83759 18.3493C4.39844 18.3041 4.92081 19.1089 4.64957 19.6041C4.87104 19.8059 4.98903 20.0996 4.97859 20.4064C4.96987 20.662 4.86481 21.0088 4.62463 21.1318C4.71622 21.8054 4.06904 22.4318 3.40866 22.2645C3.36258 22.5954 3.16386 22.8679 2.82317 22.9638C2.58515 23.0317 2.16451 22.9791 2.00555 22.7508C1.73408 22.859 1.38663 22.6974 1.19431 22.4944C0.649899 22.5186 0.199192 21.8242 0.413421 21.3199C-0.216783 21.149 -0.346255 20.1731 0.0194709 19.6885L0.0216868 19.6895ZM4.40956 17.8568C4.5293 18.0994 4.7243 18.264 4.95038 18.3819C4.93002 18.3462 4.91231 18.3078 4.89907 18.2715C4.86842 18.1872 4.98125 18.1313 5.03405 18.1999C5.12924 18.3243 5.23036 18.4445 5.35814 18.5364C5.48879 18.631 5.63367 18.6681 5.77653 18.7301C5.85355 18.7638 5.83259 18.8892 5.74841 18.8919C5.65323 18.8947 5.55574 18.876 5.46266 18.8388C5.56633 19.0067 5.67668 19.1573 5.88176 19.2379C6.18383 19.3562 6.51861 19.2287 6.74386 19.0139C6.74445 18.9595 6.78125 18.903 6.82903 18.8819C7.02845 18.7944 7.25989 18.8354 7.47058 18.7382C7.69211 18.6351 7.89776 18.463 8.03534 18.2614C8.04007 18.2541 8.04765 18.2495 8.053 18.2438C8.05564 18.241 8.05993 18.2376 8.06262 18.2347C8.07284 18.2273 8.08246 18.2181 8.09393 18.214C8.29704 18.1213 8.51007 18.1017 8.70446 17.9749C8.89616 17.8509 9.02924 17.6828 9.17255 17.5072C9.20171 17.4704 9.23888 17.4606 9.27201 17.4653C9.54416 17.4149 9.78048 17.4542 10.0275 17.2839C10.2142 17.1561 10.3594 16.9705 10.4354 16.7577C10.2724 16.8637 10.0916 16.9314 9.90302 16.9215C9.77285 16.9147 9.72197 16.7443 9.85186 16.6895C10.0339 16.6102 10.2201 16.5779 10.3914 16.4688C10.561 16.3604 10.7018 16.2287 10.8173 16.0632C10.877 15.9779 11.0235 16.0704 10.9718 16.1622C10.917 16.2607 10.8479 16.3606 10.7682 16.457C11.4731 16.6194 12.03 16.2483 12.4328 15.6622C12.4713 15.6052 12.5493 15.6161 12.5924 15.6584C12.5985 15.6599 12.6068 15.6625 12.6136 15.6656C12.983 15.8267 13.3026 15.6879 13.5473 15.4249C13.5337 15.413 13.5207 15.4028 13.5071 15.3909C13.3668 15.2494 13.5408 15.0308 13.7047 15.1507C14.3789 15.6459 15.1869 15.3443 15.3601 14.5799C15.326 14.5624 15.2923 14.541 15.264 14.5139C15.1959 14.4489 15.221 14.3145 15.3271 14.3114C15.3585 14.3112 15.3899 14.311 15.4209 14.3147C15.4627 14.277 15.5368 14.2875 15.575 14.3315C15.6724 14.3447 15.7701 14.354 15.8752 14.3326C15.9972 14.3069 16.1153 14.2602 16.219 14.1944C16.2323 14.1802 16.2484 14.1687 16.2658 14.1605C16.3196 14.1203 16.3705 14.0719 16.4124 14.0193C16.4617 13.9565 16.575 14.0237 16.5332 14.0969C16.5097 14.1391 16.485 14.178 16.458 14.2159C16.7172 14.3179 17.0449 14.2473 17.2014 14.0164C17.2388 13.9616 17.3335 13.9421 17.3912 13.9735C18.1842 14.4086 19.0486 13.7742 18.9089 12.8769C18.892 12.7745 19.061 12.7355 19.0872 12.8381C19.1105 12.9325 19.1238 13.0249 19.1287 13.1148C19.2331 13.0357 19.3434 12.9674 19.4064 12.8304C19.5009 12.6277 19.4402 12.4404 19.4337 12.2295C19.4338 12.2145 19.4372 12.1983 19.4434 12.1848C19.4404 12.1766 19.4374 12.1683 19.4354 12.1578C19.3778 11.715 19.4326 11.3266 19.1922 10.9204C19.0158 10.6236 18.7479 10.4518 18.4994 10.2318C18.4562 10.2251 18.4158 10.2005 18.4029 10.1547C18.2903 9.74873 18.2582 9.38081 17.8912 9.10476C17.5113 8.8185 16.9572 8.81076 16.5569 9.04809C16.5217 9.06832 16.4859 9.06644 16.4568 9.0527C16.4282 9.16223 16.2904 9.24604 16.1964 9.14561C15.9637 8.89743 15.6827 8.7304 15.3334 8.79765C15.0756 8.84663 14.9203 9.00977 14.7475 9.17552C14.7596 9.26463 14.6864 9.37357 14.5799 9.35056C14.4613 9.32454 14.35 9.30336 14.2296 9.31347C14.1165 9.32289 14.0071 9.36272 13.8936 9.36099C13.8302 9.35974 13.7733 9.30002 13.7808 9.23933C13.5702 8.96064 13.3025 8.88602 12.9668 9.01572C12.6957 9.11999 12.2537 9.37998 12.3409 9.72601C12.3627 9.81156 12.2869 9.88783 12.2094 9.85801C12.1932 9.86952 12.172 9.87723 12.1506 9.87941C12.0428 9.88316 11.9458 9.84551 11.8375 9.86812C11.7346 9.89057 11.6513 9.95645 11.5533 9.99213C11.5271 10.0016 11.5023 9.99946 11.4789 9.99113C11.4734 9.99127 11.4695 9.9908 11.4634 9.98929C10.8146 9.78779 10.5109 10.336 10.1687 10.7785C10.1385 10.8175 10.0739 10.8129 10.0415 10.7799C10.0136 10.7844 9.98425 10.7801 9.95133 10.7659C9.41499 10.5123 8.4544 10.5421 8.35237 11.2937C8.34426 11.3527 8.28724 11.3791 8.23634 11.3715C8.22408 11.3834 8.21115 11.3937 8.19379 11.4019C8.03149 11.4796 7.82191 11.397 7.64042 11.4574C7.44356 11.5216 7.26891 11.6618 7.1462 11.8281C7.10653 11.8817 7.0475 11.8771 7.00467 11.8459C6.57049 11.9441 6.12657 11.9598 5.74124 12.2178C5.31709 12.5013 5.16043 12.9249 5.14859 13.421C5.15024 13.4204 5.15249 13.4215 5.15469 13.4226C5.2611 13.3539 5.38017 13.3049 5.50562 13.2836C5.64639 13.2586 5.6947 13.4878 5.56054 13.531C5.20668 13.6467 4.96002 13.8637 4.83556 14.2232C4.80418 14.315 4.67309 14.2599 4.68262 14.1741C4.69652 14.0344 4.74255 13.9017 4.81157 13.7812C4.80339 13.7842 4.79526 13.7871 4.78543 13.7907C4.61996 13.8547 4.47403 13.9621 4.3615 14.1002C4.17156 14.3359 4.08543 14.6889 4.12533 14.9866C4.13699 15.0796 3.99214 15.1137 3.96459 15.0227C3.53831 15.5444 3.96759 16.1138 4.2914 16.6019C4.36946 16.5978 4.44884 16.6531 4.42745 16.7469C4.33209 17.1407 4.20582 17.4597 4.40182 17.8559L4.40956 17.8568ZM3.76052 16.3837C3.39312 15.8572 3.32365 15.1326 3.83759 14.6687C3.86013 14.6493 3.88237 14.6393 3.90707 14.6359C3.89829 14.4035 3.95144 14.1784 4.08603 13.9686C3.83306 13.2939 3.63987 12.575 3.52233 11.8454C3.51504 11.8406 3.50604 11.8363 3.49815 11.8299C2.9707 11.3261 2.59673 10.6394 2.26758 9.99425C2.20959 9.88071 2.4063 9.77545 2.46813 9.88947C2.74582 10.4187 3.10026 10.8638 3.45423 11.3278C3.37365 10.5829 3.37442 9.83266 3.47674 9.10718C3.49311 8.99462 3.67828 9.00016 3.67858 9.11787C3.68629 10.7047 3.85138 12.1801 4.33411 13.6894C4.5074 13.5403 4.72945 13.4184 4.94478 13.3998C4.51654 12.269 6.10969 11.461 7.03439 11.592C7.14668 11.3921 7.32118 11.2463 7.54502 11.1649C7.7068 11.106 7.97098 11.0491 8.14429 11.1338C8.14522 10.8211 8.41451 10.5697 8.69408 10.438C9.13492 10.2308 9.65435 10.255 10.0852 10.4778C10.2958 9.92802 11.0721 9.27517 11.5337 9.69438C11.6644 9.59075 11.8633 9.5426 12.0331 9.56684C12.0268 9.23436 12.5407 8.87715 12.7739 8.7605C13.1823 8.55572 13.8239 8.57468 14.0279 9.05401C14.1827 9.00142 14.3673 9.00528 14.5269 9.03698C14.6419 8.71269 15.0154 8.49822 15.3372 8.45215C15.7444 8.39181 16.1684 8.57044 16.4207 8.89753C16.4271 8.8896 16.4335 8.88166 16.442 8.8748C16.5219 8.81955 16.6041 8.77097 16.6877 8.73119C15.5165 7.36389 14.5773 5.85612 13.0834 4.79151C11.5872 3.72583 9.71906 3.26495 7.91124 3.49841C6.09847 3.73367 4.42795 4.69516 3.26834 6.10469C2.1167 7.5057 1.58569 9.2849 1.46612 11.0864C1.31678 13.3195 1.79783 15.5308 2.242 17.7069C2.24896 17.7362 2.24696 17.7612 2.24213 17.7835C2.39481 17.8421 2.53438 17.9409 2.61282 18.075C2.87959 17.9387 3.18255 17.9424 3.44594 18.0561C3.33116 17.5069 3.4987 16.8081 3.76216 16.3831L3.76052 16.3837ZM0.445408 21.1231C0.438595 21.0078 0.445005 20.8932 0.466631 20.7899C0.49101 20.6688 0.668282 20.7035 0.653274 20.8249C0.635657 20.9697 0.652203 21.0965 0.689364 21.2138C0.705355 21.2323 0.714978 21.2588 0.716412 21.2881C0.775839 21.4311 0.864679 21.5633 0.963224 21.707C1.03472 21.8119 0.907166 21.9088 0.811155 21.8484C0.762861 21.8173 0.719294 21.779 0.680613 21.7388C0.693386 21.8146 0.7194 21.8911 0.770695 21.966C0.886607 22.137 1.05594 22.2006 1.23656 22.2546C1.2848 22.2296 1.34103 22.2316 1.387 22.2765C1.47793 22.3688 1.58424 22.4422 1.71183 22.4725C1.81722 22.4977 1.92562 22.4957 2.03215 22.5037C2.04093 22.5023 2.0497 22.501 2.05907 22.5014C2.28748 22.5341 2.42204 22.7208 2.68041 22.6885C2.94102 22.6572 3.14712 22.4457 3.2228 22.2012C3.2228 22.2012 3.2228 22.2012 3.22056 22.2001C3.19823 22.1896 3.18345 22.1744 3.16969 22.157C3.03551 22.2712 2.85053 22.3984 2.67343 22.3694C2.60869 22.3593 2.57236 22.2696 2.61873 22.2191C2.72805 22.1026 2.89641 22.0619 3.0268 21.9677C3.19278 21.8493 3.32062 21.7074 3.4175 21.5263C3.46802 21.4312 3.61106 21.4989 3.56948 21.5981C3.51862 21.7177 3.45168 21.8337 3.37278 21.9372C3.62992 21.9726 3.87383 21.9717 4.09091 21.7955C4.3123 21.6157 4.40313 21.3265 4.41893 21.0496C4.42031 21.0229 4.43407 21.0048 4.4529 20.9904C4.52574 20.7788 4.6766 20.6341 4.6885 20.3923C4.70144 20.1126 4.56553 19.8816 4.38748 19.677C4.34641 19.6303 4.35813 19.5812 4.39176 19.5465C4.37844 19.3269 4.4222 19.137 4.28921 18.9292C4.19377 18.7788 4.0589 18.7082 3.91586 18.6406C3.85832 18.7214 3.73261 18.7522 3.66215 18.645C3.44779 18.3153 3.01496 18.1886 2.64907 18.3068C2.60882 18.3589 2.51665 18.37 2.4588 18.3331C2.28853 18.2211 2.18801 18.0669 1.96543 18.0451C1.73347 18.0229 1.4772 18.1779 1.34986 18.372C1.33868 18.4023 1.31528 18.4295 1.28261 18.4414C1.15947 18.4843 1.03996 18.4661 0.913489 18.4897C0.721307 18.526 0.545711 18.6179 0.417004 18.7676C0.197992 19.025 0.162053 19.399 0.27299 19.714C0.294023 19.7718 0.256004 19.8249 0.207165 19.8483C0.198563 20.0534 0.112147 20.2532 0.110834 20.4631C0.112092 20.7207 0.212653 21.0021 0.440506 21.1249L0.445408 21.1231Z" fill="#1E0303"/>
<path d="M10.007 17.2727C9.99916 17.2867 9.99195 17.3025 9.98348 17.3149C9.99864 17.3056 10.0154 17.2958 10.0316 17.2843L10.0623 17.2619L10.007 17.2727Z" fill="#CADDEA"/>
<path d="M4.4355 16.7478C4.34012 17.1416 4.21385 17.4606 4.40987 17.8568C4.52961 18.0994 4.72461 18.264 4.9507 18.3819C4.93033 18.3462 4.91322 18.3095 4.89938 18.2715C4.87037 18.1866 4.98155 18.1312 5.03594 18.1993C5.1312 18.3237 5.23231 18.4439 5.3601 18.5358C5.4885 18.6294 5.63563 18.6675 5.77844 18.7295C5.85551 18.7632 5.83455 18.8886 5.75037 18.8913C5.65519 18.8941 5.55769 18.8754 5.4646 18.8381C5.56829 19.0061 5.67864 19.1567 5.88372 19.2373C6.18577 19.3555 6.52219 19.2275 6.74522 19.0117C6.74635 18.9589 6.7826 18.9008 6.83039 18.8797C7.02981 18.7921 7.26125 18.8332 7.47254 18.7376C7.69405 18.6345 7.89805 18.463 8.03505 18.2598C8.04142 18.2518 8.04736 18.2478 8.05329 18.2438C8.05698 18.2387 8.05962 18.2359 8.06231 18.233L8.06396 18.2324C8.07418 18.225 8.08381 18.2159 8.09688 18.2111C8.29939 18.1168 8.51308 18.0989 8.70741 17.9721C8.83591 17.8879 8.93905 17.7849 9.03528 17.6732C8.90718 17.6618 8.77918 17.6355 8.66245 17.5994C8.21604 17.4608 7.74599 17.1606 7.68939 16.695C7.65836 16.437 7.7535 16.1442 7.59582 15.9398C7.51212 15.8318 7.37899 15.7812 7.25605 15.7231C6.61346 15.4165 6.1516 14.7729 6.01619 14.0704C5.8824 13.3672 6.0639 12.6204 6.46446 12.0333C6.48233 12.0062 6.50232 11.9746 6.50192 11.943C6.23917 11.9937 5.98462 12.0621 5.75094 12.2182C5.32679 12.5016 5.17011 12.9252 5.15829 13.4214C5.16054 13.4224 5.16213 13.4218 5.16603 13.4223C5.27239 13.3536 5.38986 13.3053 5.51696 13.2833C5.65833 13.2599 5.70599 13.4876 5.57024 13.5314C5.21698 13.6487 4.97134 13.8634 4.8458 14.2252C4.81448 14.317 4.68339 14.2618 4.69226 14.1745C4.70681 14.0364 4.75225 13.902 4.82187 13.7832C4.81369 13.7862 4.8049 13.7875 4.79513 13.791C4.63131 13.8544 4.48371 13.9623 4.37284 14.1C4.18289 14.3355 4.09677 14.6886 4.13563 14.9886C4.14893 15.081 4.00343 15.1134 3.97426 15.023C3.54799 15.5447 3.97787 16.1158 4.30109 16.6022C4.37751 16.5987 4.45908 16.6551 4.4355 16.7478Z" fill="#CADDEA"/>
<path d="M3.44423 18.0565C3.33109 17.5067 3.49699 16.8086 3.76045 16.3836C3.39305 15.8571 3.32298 15.1308 3.83752 14.6686C3.85841 14.6498 3.8823 14.6392 3.907 14.6358C3.89822 14.4034 3.94977 14.1789 4.08596 13.9685C3.83134 13.2944 3.63815 12.5755 3.52226 11.8453C3.51332 11.841 3.50498 11.8385 3.49808 11.8297C2.96898 11.3266 2.59665 10.6392 2.26751 9.99413C2.20891 9.87893 2.40562 9.77367 2.46581 9.88828C2.74574 10.4185 3.09799 10.8626 3.45251 11.3283C3.37133 10.5817 3.37374 9.83087 3.47606 9.1054C3.49243 8.99284 3.67601 8.99896 3.67791 9.1161C3.68621 10.7046 3.85129 12.1799 4.33239 13.6899C4.50568 13.5408 4.72718 13.4172 4.94306 13.4003C4.64072 12.6052 5.33724 11.972 6.09851 11.7099C5.80414 11.4655 5.61083 11.158 5.43818 10.7701C5.21277 10.2575 5.0782 9.70984 4.87723 9.18827C4.73747 8.82956 4.5281 8.44757 4.16241 8.33755C3.89619 8.25677 3.61137 8.34361 3.34756 8.43215C3.01067 8.54354 2.65673 8.67424 2.43959 8.95712C2.21074 9.25362 2.18342 9.6563 2.1888 10.0321C2.19588 10.6056 2.25732 11.1761 2.31716 11.7471C2.53965 13.8225 2.76214 15.8978 2.98525 17.9749C3.14077 17.965 3.29912 17.9934 3.44423 18.0565Z" fill="#DE1E1E"/>
<path d="M0.654831 20.8241C0.637219 20.9688 0.653164 21.094 0.690325 21.2113C0.706917 21.2315 0.717552 21.2556 0.717373 21.2856C0.7768 21.4286 0.866236 21.5625 0.964185 21.7045C1.03791 21.8105 0.908121 21.9063 0.814349 21.8469C0.763818 21.8149 0.722469 21.7775 0.683204 21.7357C0.69658 21.8131 0.721993 21.888 0.773288 21.9629C0.889199 22.1339 1.0569 22.1981 1.23915 22.2515C1.28739 22.2265 1.34526 22.2279 1.38959 22.2734C1.48052 22.3657 1.58683 22.4392 1.7144 22.4694C1.81981 22.4947 1.92822 22.4926 2.03475 22.5006C2.04352 22.4993 2.05229 22.4979 2.06166 22.4983C2.29007 22.531 2.42463 22.7178 2.68361 22.6871C2.94421 22.6558 3.15031 22.4443 3.22539 22.1981L3.22375 22.1987C3.2014 22.1881 3.18663 22.173 3.17288 22.1555C3.0393 22.2715 2.8537 22.397 2.67662 22.368C2.61188 22.3578 2.57555 22.2682 2.62191 22.2176C2.73184 22.1028 2.89961 22.0605 3.0306 21.9679C3.19658 21.8495 3.3244 21.7076 3.4213 21.5265C3.47181 21.4314 3.61425 21.4974 3.57268 21.5967C3.52076 21.7184 3.45485 21.8322 3.37658 21.9374C3.63371 21.9728 3.87762 21.9719 4.09471 21.7957C4.31609 21.616 4.40693 21.3267 4.4227 21.0498C4.4247 21.0248 4.4395 21.0044 4.4573 20.9923C4.53013 20.7807 4.6804 20.6343 4.6923 20.3925C4.70523 20.1129 4.56932 19.8818 4.39188 19.6789C4.3502 19.6305 4.36191 19.5813 4.39616 19.5483C4.38283 19.3287 4.42436 19.1378 4.29197 18.9317C4.19652 18.7813 4.0627 18.7084 3.91863 18.643C3.86107 18.7238 3.73537 18.7546 3.66431 18.6458C3.54463 18.4594 3.35262 18.3385 3.14405 18.2891C3.40625 18.5621 3.6598 18.913 3.78569 19.2488C3.93322 19.6439 3.85646 20.16 3.50076 20.3773C3.35266 20.4686 3.16823 20.5058 3.05778 20.6395C2.91815 20.81 2.95732 21.0651 2.89163 21.276C2.78185 21.6302 2.34603 21.8206 1.99874 21.7001C1.65146 21.5797 1.42499 21.1964 1.44399 20.8267C0.96673 20.8676 0.488784 20.6881 0.121894 20.3765C0.119479 20.4055 0.118679 20.4338 0.117898 20.4621C0.11752 20.7204 0.218062 21.0017 0.445935 21.1245C0.439103 21.0091 0.447166 20.894 0.468791 20.7908C0.493174 20.6697 0.669839 20.7026 0.655433 20.8257L0.654831 20.8241Z" fill="#CADDEA"/>
</g>
</g>
</g>
<defs>
<clipPath id="clip0_448_252">
<rect width="102" height="69" fill="white"/>
</clipPath>
<clipPath id="clip1_448_252">
<rect width="21.9038" height="17.0363" fill="white" transform="translate(-4.89014 7.64746) rotate(-20)"/>
</clipPath>
</defs>
</svg>
