<svg xmlns="http://www.w3.org/2000/svg" width="64" height="21" viewBox="0 0 64 21" fill="none">
<g clip-path="url(#clip0_2088_151)">
<path d="M7.6665 16.1509V6.01575" stroke="#FCB74F" stroke-width="4" stroke-linecap="round" stroke-linejoin="round"/>
<path d="M12.7343 11.0834H2.59912" stroke="#FCB74F" stroke-width="4" stroke-linecap="round" stroke-linejoin="round"/>
<path d="M29.025 15.2C29.7083 15.2 30.1917 15.2833 30.475 15.45C30.775 15.6 30.975 15.8417 31.075 16.175C31.175 16.4917 31.225 16.9167 31.225 17.45C31.225 17.9667 31.1667 18.3833 31.05 18.7C30.95 19.0167 30.775 19.2333 30.525 19.35C30.1583 19.55 29.6417 19.65 28.975 19.65H19.2C18.6 19.65 18.0833 19.425 17.65 18.975C17.2167 18.525 17 18 17 17.4C17 16.5 17.3083 15.675 17.925 14.925C18.5583 14.1583 19.3167 13.5083 20.2 12.975C21.0833 12.425 21.9667 11.8917 22.85 11.375C23.7333 10.8417 24.4833 10.2417 25.1 9.575C25.7333 8.9083 26.05 8.2 26.05 7.45C26.05 7.3 25.9917 7.0917 25.875 6.825C25.7583 6.5417 25.625 6.3167 25.475 6.15C25.3417 5.9667 25.125 5.8 24.825 5.65C24.525 5.5 24.1083 5.425 23.575 5.425C23.0417 5.425 22.575 5.625 22.175 6.025C21.7917 6.4083 21.575 6.7917 21.525 7.175L21.425 7.75V7.9C21.425 8.2667 21.4083 8.5417 21.375 8.725C21.3583 8.9083 21.2833 9.1167 21.15 9.35C20.9 9.75 20.25 9.95 19.2 9.95C18.0333 9.95 17.3417 9.6333 17.125 9C17.0417 8.7333 17 8.3083 17 7.725C17 5.9917 17.6167 4.4417 18.85 3.075C20.1 1.69167 21.725 1 23.725 1C25.7417 1 27.375 1.7 28.625 3.1C29.875 4.4833 30.5 6.0667 30.5 7.85C30.5 8.8 30.2917 9.7 29.875 10.55C29.4583 11.4 28.9583 12.0833 28.375 12.6C27.1417 13.7 26.0417 14.4417 25.075 14.825L24.45 15.075V15.2H29.025ZM34.1344 3.4C34.6177 2.71667 35.2927 2.15 36.1594 1.7C37.0427 1.23333 38.0594 1 39.2094 1C40.3594 1 41.3594 1.225 42.2094 1.675C43.076 2.125 43.751 2.68333 44.2344 3.35C44.7344 4.0167 45.1344 4.8 45.4344 5.7C45.9344 7.2 46.1844 8.7917 46.1844 10.475C46.1844 13.4917 45.5344 15.8833 44.2344 17.65C43.751 18.3167 43.076 18.8667 42.2094 19.3C41.3594 19.7333 40.3677 19.95 39.2344 19.95C38.101 19.95 37.0927 19.7333 36.2094 19.3C35.3427 18.85 34.6594 18.3 34.1594 17.65C33.676 17 33.276 16.225 32.9594 15.325C32.476 13.8917 32.2344 12.2667 32.2344 10.45C32.2344 8.7833 32.426 7.3583 32.8094 6.175C33.2094 4.9917 33.651 4.0667 34.1344 3.4ZM39.1844 15.5C40.901 15.5 41.7594 13.8667 41.7594 10.6V10.45C41.7594 7.1 40.9094 5.425 39.2094 5.425C37.5094 5.425 36.6594 7.1083 36.6594 10.475C36.6594 13.825 37.501 15.5 39.1844 15.5ZM49.3443 3.4C49.8277 2.71667 50.5027 2.15 51.3693 1.7C52.2527 1.23333 53.2693 1 54.4193 1C55.5693 1 56.5693 1.225 57.4193 1.675C58.286 2.125 58.961 2.68333 59.4443 3.35C59.9443 4.0167 60.3443 4.8 60.6443 5.7C61.1443 7.2 61.3943 8.7917 61.3943 10.475C61.3943 13.4917 60.7443 15.8833 59.4443 17.65C58.961 18.3167 58.286 18.8667 57.4193 19.3C56.5693 19.7333 55.5777 19.95 54.4443 19.95C53.311 19.95 52.3027 19.7333 51.4193 19.3C50.5527 18.85 49.8693 18.3 49.3693 17.65C48.886 17 48.486 16.225 48.1693 15.325C47.686 13.8917 47.4443 12.2667 47.4443 10.45C47.4443 8.7833 47.636 7.3583 48.0193 6.175C48.4193 4.9917 48.861 4.0667 49.3443 3.4ZM54.3943 15.5C56.111 15.5 56.9693 13.8667 56.9693 10.6V10.45C56.9693 7.1 56.1193 5.425 54.4193 5.425C52.7193 5.425 51.8693 7.1083 51.8693 10.475C51.8693 13.825 52.711 15.5 54.3943 15.5Z" fill="#FCB74F"/>
</g>
<defs>
<clipPath id="clip0_2088_151">
<rect width="64" height="21" fill="white"/>
</clipPath>
</defs>
</svg>