<svg xmlns="http://www.w3.org/2000/svg" width="22" height="23" viewBox="0 0 22 23" fill="none">
<path fill-rule="evenodd" clip-rule="evenodd" d="M15.8368 2.07843L14.2927 4.39458C13.5709 3.35062 12.3654 2.66667 11.0002 2.66667C8.79102 2.66667 7.00016 4.45753 7.00016 6.66667V9.33333H13.6668H17.6668H19.0002C20.4729 9.33333 21.6668 10.5272 21.6668 12V20C21.6668 21.4728 20.4729 22.6667 19.0002 22.6667H3.00016C1.5274 22.6667 0.333496 21.4728 0.333496 20V12C0.333496 10.5272 1.5274 9.33333 3.00016 9.33333H4.3335V6.66667C4.3335 2.98477 7.31826 0 11.0002 0C12.9043 0 14.622 0.798281 15.8368 2.07843Z" fill="#86FC4F"/>
</svg>