<svg xmlns="http://www.w3.org/2000/svg" width="23" height="23" viewBox="0 0 23 23" fill="none">
	<g clipPath="url(#clip0_103_159)">
		<path
			d="M21.2281 14.4483C20.9117 14.4483 20.6553 14.7047 20.6553 15.0211V20.1071C20.6542 21.0558 19.8856 21.8247 18.9368 21.8256H2.8641C1.91536 21.8247 1.14676 21.0558 1.14564 20.1071V5.18001C1.14676 4.23151 1.91536 3.46268 2.8641 3.46156H7.9501C8.2665 3.46156 8.52292 3.20513 8.52292 2.88874C8.52292 2.57257 8.2665 2.31592 7.9501 2.31592H2.8641C1.28303 2.31771 0.00179006 3.59894 0 5.18001V20.1073C0.00179006 21.6884 1.28303 22.9696 2.8641 22.9714H18.9368C20.5179 22.9696 21.7991 21.6884 21.8009 20.1073V15.0211C21.8009 14.7047 21.5445 14.4483 21.2281 14.4483Z"
			fill="#FCB74F"
		/>
		<path
			d="M21.574 0.842416C20.5673 -0.164269 18.9352 -0.164269 17.9285 0.842416L7.70906 11.0619C7.63903 11.1319 7.58846 11.2187 7.56206 11.314L6.21817 16.1658C6.1629 16.3647 6.21906 16.5777 6.36495 16.7238C6.51107 16.8697 6.72408 16.9259 6.923 16.8708L11.7747 15.5267C11.8701 15.5003 11.9569 15.4498 12.0269 15.3797L22.2461 5.16004C23.2513 4.15268 23.2513 2.52194 22.2461 1.51458L21.574 0.842416ZM8.95718 11.4342L17.321 3.07015L20.0184 5.76754L11.6544 14.1316L8.95718 11.4342ZM8.41838 12.5154L10.5734 14.6706L7.59249 15.4965L8.41838 12.5154ZM21.4361 4.35004L20.8286 4.95754L18.131 2.25992L18.7387 1.65242C19.2979 1.09325 20.2046 1.09325 20.7637 1.65242L21.4361 2.32459C21.9944 2.88443 21.9944 3.79042 21.4361 4.35004Z"
			fill="#FCB74F"
		/>
	</g>
	<defs>
		<clipPath id="clip0_103_159">
			<rect width="23" height="23" fill="white" />
		</clipPath>
	</defs>
</svg>