<svg xmlns="http://www.w3.org/2000/svg" width="238" height="238" viewBox="0 0 238 238" fill="none">
<g>
<path d="M69.684 0L0 69.684V168.266L69.684 238H168.266L238 168.266V69.694L168.316 0H69.684ZM71.688 4.76H166.312L233.24 71.688V166.312L166.312 233.24H71.698L4.76 166.312V71.698L71.688 4.76ZM77.211 18.088L18.088 77.211V160.789L77.211 219.912H160.789L219.912 160.789V77.211L160.789 18.088H77.211ZM43.594 76.16H63.268L85.928 159.559H68.594L64.161 139.706H42.027L37.604 159.51H20.944L43.594 76.16ZM96.152 76.16H120.854C124.375 76.11 127.895 76.448 131.376 77.112C134.371 77.687 137.276 78.828 139.805 80.484C142.189 82.112 144.131 84.3063 145.458 86.87C146.846 89.538 147.51 92.87 147.51 96.866C147.51 98.77 147.272 100.674 146.796 102.479C146.334 104.317 145.612 106.08 144.654 107.715C143.667 109.37 142.395 110.837 140.896 112.048C139.289 113.33 137.446 114.283 135.472 114.855V115.38C140.658 116.471 144.565 118.623 147.173 121.757C149.801 124.9 151.13 129.284 151.13 134.946C151.13 139.23 150.416 142.899 148.988 145.944C147.609 148.916 145.555 151.524 142.988 153.56C140.319 155.607 137.283 157.125 134.044 158.032C130.474 159.024 126.755 159.559 123.046 159.51H96.152V76.16ZM162.266 76.16H188.734C192.443 76.11 196.162 76.586 199.781 77.489C203.054 78.302 206.158 79.829 208.776 81.971C211.452 84.2028 213.531 87.0655 214.825 90.301C216.292 93.722 217.056 97.957 217.056 103.004C217.056 107.864 216.292 112.098 214.775 115.668C213.387 119.04 211.304 122.044 208.587 124.474C205.972 126.789 202.907 128.538 199.583 129.611C196.06 130.735 192.382 131.298 188.684 131.277H178.599V159.559H162.266V76.16ZM52.836 90.49C51.934 94.912 51.031 99.484 50.119 104.105C49.2533 108.54 48.2713 112.951 47.174 117.334L45.408 125H60.828L59.163 117.334C58.0684 112.927 57.0698 108.497 56.168 104.046C55.256 99.5147 54.2873 94.996 53.262 90.49H52.836ZM112.386 90.777V109.817H120.051C124.048 109.817 126.953 108.905 128.758 107.05C130.563 105.195 131.475 102.717 131.475 99.583C131.475 96.44 130.563 94.149 128.708 92.82C126.853 91.491 123.998 90.777 120.14 90.777H112.386ZM178.639 91.154V116.342H187.732C196.638 116.342 201.06 111.91 201.06 103.054C201.06 98.72 199.92 95.626 197.689 93.822C195.448 92.007 192.116 91.154 187.732 91.154H178.639ZM112.386 123.086V144.942H121.618C130.563 144.942 135.045 141.134 135.045 133.568C135.045 129.898 133.954 127.231 131.713 125.565C129.472 123.899 126.14 123.086 121.618 123.086H112.386Z" fill="#FCB74F"/>
</g>
</svg>