<svg width="238" height="238" viewBox="0 0 238 238" fill="none" xmlns="http://www.w3.org/2000/svg">
<g clip-path="url(#clip0_2280_121)">
<path d="M69.6844 0L0 69.6844V168.266L69.6844 238H168.266L238 168.266V69.6943L168.316 0H69.6844ZM71.6876 4.76H166.312L233.24 71.6876V166.312L166.312 233.24H71.6975L4.76 166.312V71.6975L71.6876 4.76ZM77.2112 18.088L18.088 77.2112V160.789L77.2112 219.912H160.789L219.912 160.789V77.2112L160.789 18.088H77.2112ZM43.5937 76.16H63.2683L85.9279 159.559H68.5936L64.1608 139.706H42.0268L37.604 159.51H20.944L43.5937 76.16ZM96.152 76.16H120.854C124.375 76.1104 127.895 76.4476 131.376 77.112C134.371 77.6872 137.276 78.8276 139.805 80.4837C142.185 82.11 144.129 84.3016 145.458 86.87C146.846 89.5376 147.51 92.8696 147.51 96.866C147.51 98.77 147.272 100.674 146.796 102.479C146.32 104.343 145.606 106.098 144.654 107.715C143.663 109.381 142.374 110.858 140.896 112.048C139.28 113.338 137.425 114.29 135.472 114.855V115.38C140.658 116.471 144.565 118.623 147.173 121.757C149.801 124.9 151.13 129.284 151.13 134.946C151.13 139.23 150.416 142.899 148.988 145.944C147.6 148.938 145.557 151.507 142.988 153.56C140.321 155.602 137.276 157.13 134.044 158.032C130.474 159.024 126.755 159.559 123.046 159.51H96.152V76.16ZM162.266 76.16H188.734C192.443 76.1104 196.162 76.5864 199.781 77.4888C203.054 78.302 206.158 79.8292 208.776 81.9712C211.443 84.2024 213.536 87.0584 214.825 90.3012C216.292 93.7224 217.056 97.9568 217.056 103.004C217.056 107.864 216.292 112.098 214.775 115.668C213.387 119.04 211.304 122.044 208.587 124.474C205.972 126.789 202.906 128.538 199.583 129.611C196.06 130.735 192.382 131.297 188.684 131.277H178.599V159.559H162.266V76.16ZM52.836 90.4896C51.9336 94.9124 51.0312 99.484 50.1188 104.105C49.2263 108.716 48.2148 113.149 47.1736 117.334L45.4084 125H60.8288L59.1628 117.334C58.0681 112.927 57.0696 108.496 56.168 104.046C55.2563 99.515 54.2877 94.9959 53.2624 90.4896H52.836ZM112.386 90.7772V109.817H120.051C124.048 109.817 126.953 108.905 128.758 107.05C130.563 105.196 131.475 102.717 131.475 99.5832C131.475 96.4396 130.563 94.1488 128.708 92.82C126.854 91.4912 123.998 90.7772 120.14 90.7772H112.386ZM178.639 91.154V116.342H187.732C196.638 116.342 201.06 111.91 201.06 103.054C201.06 98.7204 199.92 95.6264 197.689 93.8216C195.448 92.0068 192.116 91.154 187.732 91.154H178.639ZM112.386 123.086V144.942H121.618C130.563 144.942 135.045 141.134 135.045 133.568C135.045 129.898 133.954 127.231 131.713 125.565C129.472 123.899 126.14 123.086 121.618 123.086H112.386Z" fill="#FCB74F"/>
</g>
<defs>
<clipPath id="clip0_2280_121">
<rect width="238" height="238" fill="white"/>
</clipPath>
</defs>
</svg>
