<svg width="70" height="47" viewBox="0 0 70 47" fill="none" xmlns="http://www.w3.org/2000/svg">
<path d="M7.35619 9.52593V23.4849H4.03668V9.52593H7.35619ZM15.4117 9.52593L10.9385 15.7906L15.7768 23.4849H11.9302L7.45707 16.0324L11.9103 9.52593H15.4117ZM19.9823 12.7887V23.4849H16.7842V12.7894L19.9823 12.7887ZM18.3633 7.14868C18.9165 7.14868 19.3687 7.32374 19.7194 7.67317C20.0838 8.00831 20.2657 8.43812 20.2657 8.96193C20.2657 9.48574 20.0838 9.92236 19.7194 10.2711C19.3687 10.6069 18.9165 10.7752 18.3633 10.7752C17.8102 10.7752 17.358 10.6069 17.0073 10.2711C16.6566 9.92236 16.4809 9.48574 16.4809 8.96193C16.4809 8.43812 16.6566 8.0083 17.0073 7.67249C17.358 7.32374 17.8102 7.14936 18.3633 7.14936V7.14868ZM28.792 12.4467C29.7232 12.4467 30.4521 12.7287 30.9778 13.2927C31.5041 13.8567 31.767 14.6489 31.767 15.67V23.4849H28.5689V16.2136C28.5689 15.6761 28.4818 15.3069 28.3061 15.1053C28.1441 14.8907 27.8943 14.7831 27.5574 14.7831C26.9095 14.7831 26.2891 15.2463 25.6955 16.1727V23.4849H22.4975V12.7894H25.2906L25.513 14.0584C25.9721 13.5209 26.4641 13.1184 26.9905 12.8493C27.5306 12.5809 28.1311 12.4467 28.792 12.4467ZM44.0767 13.414C43.3753 13.6953 42.3432 13.8363 40.9802 13.8363C41.6816 14.1319 42.1949 14.4943 42.5182 14.9241C42.8421 15.3539 43.004 15.9118 43.004 16.5964C43.004 17.2809 42.8222 17.8987 42.4578 18.4491C42.0933 18.9866 41.567 19.4095 40.8793 19.7181C40.204 20.0274 39.408 20.1813 38.4911 20.1813C38.0763 20.1831 37.6623 20.1427 37.2558 20.0607C37.1432 20.1191 37.0515 20.2104 36.993 20.3223C36.939 20.4286 36.911 20.5459 36.9113 20.6649C36.9113 20.8665 36.9861 21.0273 37.1343 21.1486C37.2963 21.2555 37.6133 21.3093 38.0855 21.3093H39.7051C40.5286 21.3093 41.2499 21.4435 41.871 21.7126C42.4914 21.9809 42.9704 22.3501 43.3081 22.8201C43.645 23.2901 43.8138 23.8207 43.8138 24.4113C43.8138 25.5264 43.328 26.3921 42.3562 27.0099C41.3982 27.6414 40.0091 27.9567 38.1871 27.9567C36.8777 27.9567 35.8455 27.8157 35.0899 27.5337C34.3343 27.2654 33.8011 26.8826 33.4909 26.3853C33.1937 25.8881 33.0455 25.2641 33.0455 24.5121H35.9196C35.9196 24.8343 35.9807 25.0897 36.1022 25.2777C36.2367 25.4657 36.4728 25.6067 36.8104 25.7001C37.1481 25.7947 37.6339 25.8417 38.2681 25.8417C39.1451 25.8417 39.7525 25.7341 40.0894 25.5196C40.4271 25.3179 40.5952 25.0223 40.5952 24.6334C40.5952 24.3105 40.4676 24.0557 40.2109 23.8677C39.9542 23.6797 39.5699 23.5857 39.0573 23.5857H37.4981C36.3918 23.5857 35.5614 23.3909 35.0082 23.0013C34.4688 22.5987 34.1984 22.0886 34.1984 21.4707C34.1984 21.0811 34.3137 20.7051 34.543 20.3427C34.7743 19.9647 35.0934 19.6471 35.4735 19.4164C34.7989 19.0533 34.3069 18.6303 33.996 18.1474C33.6995 17.6501 33.5513 17.0527 33.5513 16.3546C33.5513 15.1591 33.983 14.2123 34.8463 13.5141C35.7103 12.8023 36.8502 12.4467 38.2674 12.4467C39.3469 12.474 40.2576 12.3664 40.9994 12.1246C41.755 11.8827 42.5312 11.5265 43.3273 11.0565L44.076 13.4133L44.0767 13.414ZM38.349 14.5413C37.8494 14.5413 37.4514 14.7027 37.1549 15.0249C36.8715 15.3335 36.7294 15.7633 36.7294 16.3144C36.7294 16.8913 36.8708 17.3416 37.1549 17.6631C37.4514 17.9723 37.8494 18.1269 38.349 18.1269C38.8754 18.1269 39.2728 17.9723 39.5431 17.6637C39.8266 17.3545 39.9686 16.8913 39.9686 16.2742C39.9686 15.1189 39.4285 14.5413 38.349 14.5413Z" fill="#FCB74F"/>
<path d="M25.0531 31.2229C25.784 31.2229 26.3687 31.4695 26.8072 31.962C27.2465 32.4429 27.4654 33.0975 27.4654 33.9258V40.2708H25.9137V34.1438C25.9137 33.0028 25.4978 32.432 24.6654 32.432C24.2269 32.432 23.8556 32.5607 23.5522 32.8175C23.2482 33.0641 22.9222 33.4558 22.5736 33.9925V40.2708H21.0226V34.1438C21.0226 33.0028 20.6061 32.432 19.7736 32.432C19.3241 32.432 18.9473 32.5607 18.644 32.8175C18.34 33.075 18.0195 33.4667 17.6825 33.9925V40.2708H16.1302V31.4246H17.4629L17.5981 32.7174C18.2611 31.7216 19.1162 31.2229 20.1621 31.2229C20.7131 31.2229 21.1791 31.3633 21.5621 31.6425C21.9553 31.9225 22.2367 32.3142 22.4055 32.8175C22.7541 32.3033 23.1364 31.9116 23.5516 31.6425C23.9791 31.3633 24.4801 31.2229 25.0531 31.2229ZM33.9328 31.2229C35.1812 31.2229 36.1481 31.6371 36.8337 32.4654C37.531 33.2937 37.8796 34.4183 37.8796 35.8392C37.8796 36.7567 37.7218 37.5679 37.4074 38.2729C37.0924 38.967 36.6374 39.5099 36.0418 39.9009C35.4447 40.2824 34.7371 40.4724 33.9157 40.4724C32.668 40.4724 31.6949 40.0583 30.9976 39.23C30.3004 38.4017 29.9524 37.2771 29.9524 35.8562C29.9524 34.9387 30.1096 34.1329 30.4246 33.4388C30.7389 32.7338 31.1946 32.1916 31.7903 31.8108C32.3867 31.4191 33.1011 31.2229 33.9328 31.2229ZM33.9328 32.4654C32.3921 32.4654 31.6221 33.5961 31.6221 35.8562C31.6221 38.1054 32.3867 39.23 33.9157 39.23C35.4454 39.23 36.2099 38.0993 36.2099 35.8392C36.2099 33.59 35.4509 32.4654 33.9328 32.4654ZM46.9048 31.4246L43.8859 40.2708H42.0137L38.944 31.4246H40.6302L42.958 38.8942L45.2687 31.4246H46.9048ZM50.2312 31.4246V40.2708H48.6795V31.4246H50.2312ZM49.4392 27.1782C49.7652 27.1782 50.0294 27.279 50.2319 27.4807C50.4343 27.6823 50.5352 27.9336 50.5352 28.2361C50.5352 28.5385 50.4343 28.7898 50.2319 28.9915C50.0294 29.1822 49.7652 29.2769 49.4392 29.2769C49.1242 29.2769 48.8655 29.1815 48.6637 28.9908C48.4606 28.7898 48.3597 28.5378 48.3597 28.2361C48.3597 27.9336 48.4606 27.6823 48.663 27.4807C48.8655 27.279 49.1249 27.1782 49.4392 27.1782ZM60.154 35.5878C60.154 35.8453 60.1423 36.1082 60.1197 36.3773H54.4524C54.5204 37.3507 54.7681 38.0666 55.195 38.5257C55.6219 38.9848 56.1729 39.2136 56.8475 39.2136C57.2751 39.2136 57.669 39.1523 58.0279 39.0297C58.3882 38.9064 58.765 38.7103 59.1589 38.4419L59.8335 39.3648C58.8885 40.1032 57.8543 40.4731 56.7295 40.4731C55.4928 40.4731 54.5259 40.0698 53.8286 39.264C53.1423 38.4582 52.7992 37.3507 52.7992 35.9407C52.7992 35.0231 52.9454 34.2119 53.2384 33.5069C53.5418 32.7903 53.9693 32.2311 54.5197 31.8278C55.0824 31.4259 55.7399 31.2236 56.4934 31.2236C57.6738 31.2236 58.5797 31.6098 59.209 32.3816C59.839 33.154 60.154 34.2228 60.154 35.5885V35.5878ZM58.6188 35.1348C58.6188 34.2623 58.4445 33.5961 58.0959 33.1377C57.7472 32.6786 57.2243 32.4497 56.5271 32.4497C55.2568 32.4497 54.565 33.3781 54.4524 35.2357H58.6188V35.1348ZM65.0444 31.2236C65.6511 31.2236 66.1967 31.3081 66.6805 31.4757C67.1794 31.652 67.6463 31.9071 68.0633 32.2311L67.4052 33.2051C67.0425 32.968 66.6519 32.776 66.242 32.6336C65.8725 32.5092 65.4846 32.4471 65.0945 32.4497C64.5887 32.4497 64.1893 32.5553 63.897 32.7685C63.6046 32.9694 63.4584 33.2494 63.4584 33.6077C63.4584 33.9653 63.5936 34.2453 63.8633 34.4469C64.1447 34.6478 64.645 34.844 65.3649 35.034C66.3538 35.2806 67.0909 35.6164 67.5747 36.0415C68.0688 36.4665 68.3159 37.0482 68.3159 37.7873C68.3159 38.6598 67.9734 39.326 67.2871 39.7844C66.6125 40.2435 65.7863 40.4724 64.8076 40.4724C63.4584 40.4724 62.3398 40.0869 61.4518 39.3144L62.278 38.3744C63.0309 38.9453 63.8633 39.2307 64.774 39.2307C65.3587 39.2307 65.8199 39.1128 66.1575 38.8778C66.5062 38.6326 66.6805 38.3016 66.6805 37.8881C66.6805 37.5857 66.6187 37.3452 66.4952 37.1661C66.371 36.9753 66.1575 36.8132 65.8535 36.679C65.5502 36.5339 65.1055 36.3827 64.5215 36.2261C63.5765 35.9802 62.8909 35.6498 62.4633 35.2357C62.0474 34.8215 61.8388 34.2957 61.8388 33.6581C61.8388 33.199 61.974 32.7848 62.2437 32.4157C62.5251 32.0349 62.9073 31.744 63.3912 31.5431C63.8853 31.3299 64.4371 31.2236 65.0444 31.2236Z" fill="#DEDEDE"/>
<path d="M12.1395 7.50425C11.27 5.47984 9.06569 4.34912 6.93069 4.91856C4.79501 5.48801 3.45402 7.56419 3.71344 9.72959L12.134 7.48449L12.1395 7.50425Z" fill="#428BC1"/>
<path d="M12.8525 3.01675C12.7675 2.85338 12.6478 2.71022 12.5018 2.5971C12.3557 2.48399 12.1867 2.4036 12.0064 2.36148C11.8421 2.32308 11.6719 2.31729 11.5054 2.34445C11.3592 2.36216 11.224 2.41938 11.0936 2.49771C10.8671 2.62236 10.6585 2.80696 10.4636 2.96635C10.1994 3.18704 9.95577 3.40229 9.69362 3.47245L9.94136 4.39474C10.4046 4.27077 10.7738 3.95743 11.0874 3.68088C11.4223 3.3982 11.6317 3.21361 11.7943 3.25584C11.911 3.28922 11.9933 3.35324 12.04 3.44793C12.0928 3.56304 12.1361 3.72311 12.1443 3.91452C12.158 4.12568 12.1169 4.37294 12.0661 4.66584C11.959 5.2312 11.7662 5.79861 11.622 6.22433C11.5866 6.36004 11.543 6.49356 11.4917 6.62417L11.4642 6.7604C11.469 6.78084 11.4491 6.78561 11.4546 6.80604L4.00097 8.79298C3.99479 8.77323 3.97489 8.77868 3.9694 8.75893L3.87675 8.65471C3.77432 8.55843 3.66975 8.4644 3.56313 8.37271C3.22411 8.0764 2.77254 7.68133 2.39646 7.24471C2.2332 7.05144 2.08413 6.8468 1.95038 6.63235C1.85636 6.44298 1.79254 6.28768 1.80626 6.17665C1.8035 6.123 1.8125 6.06939 1.83264 6.01953C1.85278 5.96966 1.88359 5.92473 1.92293 5.88784C2.04234 5.77 2.31068 5.8061 2.74783 5.90419C3.15891 5.98797 3.61528 6.08129 4.09911 5.95187L3.85067 5.03026C3.5892 5.09974 3.2694 5.03503 2.92901 4.97509C2.67386 4.91183 2.4117 4.8807 2.14871 4.88245C1.95656 4.89062 1.80969 4.90833 1.6745 4.96555C1.51652 5.02499 1.37193 5.1148 1.24901 5.22984C0.974499 5.49549 0.834498 5.85651 0.845479 6.21752C0.868812 6.70591 1.12685 7.26038 1.68273 7.88568C2.09107 8.35704 2.57352 8.78685 2.93862 9.09814C3.05117 9.19691 3.1644 9.29568 3.22617 9.36516C3.25705 9.39922 3.28793 9.43464 3.33871 9.46393C3.50822 9.61174 3.62695 9.73094 3.70999 9.88011L4.32077 12.1457C4.25969 12.162 4.23018 12.2124 4.25215 12.2928C4.26793 12.3527 4.3242 12.4024 4.3846 12.3861L12.9061 10.1144C12.9665 10.0981 12.996 10.047 12.9747 9.9673C12.9582 9.90668 12.9019 9.85764 12.8416 9.8733L12.2369 7.6282C12.2541 7.45178 12.2967 7.29035 12.3488 7.08327C12.3584 7.03764 12.3673 6.992 12.3969 6.94091C12.4288 6.81416 12.4673 6.68912 12.5121 6.56627C12.6515 6.12148 12.8532 5.50843 12.9898 4.89198C13.138 4.07936 13.0818 3.47109 12.8519 3.01675H12.8525Z" fill="#FCB74F"/>
<path d="M7.26286 5.43162C7.45021 5.7252 7.07619 6.34097 6.41531 6.77487C5.7606 7.22852 5.05923 7.35113 4.85198 7.063C4.66531 6.76874 5.03933 6.15365 5.69953 5.71976C6.36041 5.28586 7.0556 5.14281 7.26286 5.43162Z" fill="#42ADE2"/>
<path d="M7.53737 9.09687L8.50433 8.83939L9.08766 11.0041L8.12002 11.2616L7.53737 9.09687ZM9.18923 8.65616L10.1562 8.39868L10.7395 10.5634L9.77188 10.8216L9.18854 8.65616H9.18923Z" fill="#FCB74F"/>
<path d="M8.50433 8.83882L9.18923 8.65627L9.77256 10.821L9.08697 11.0042L8.50364 8.83882H8.50433ZM10.8411 8.21624L11.526 8.03369L12.1093 10.1984L11.4244 10.381L10.8411 8.21624ZM3.7505 10.1065L4.4354 9.92391L5.01874 12.0893L4.33315 12.2719L3.7505 10.1065ZM4.5157 9.90279L5.84501 9.54859L6.42835 11.7133L5.09903 12.0675L4.5157 9.90279Z" fill="#FCB74F"/>
<path d="M6.77215 7.21697C6.85313 7.51736 6.51411 8.42399 6.51411 8.42399C6.51411 8.42399 5.76539 7.80754 5.68372 7.50715C5.66421 7.43612 5.65905 7.36197 5.66851 7.28895C5.67798 7.21594 5.7019 7.1455 5.73889 7.08169C5.77588 7.01788 5.82522 6.96196 5.88406 6.91714C5.9429 6.87232 6.01009 6.83949 6.08176 6.82054C6.15332 6.80112 6.22805 6.796 6.30163 6.80546C6.3752 6.81492 6.44615 6.83877 6.51037 6.87565C6.57458 6.91252 6.63079 6.96168 6.67572 7.02027C6.72066 7.07886 6.75344 7.14572 6.77215 7.21697ZM9.29009 6.54535C9.37107 6.84574 9.03274 7.75304 9.03274 7.75304C9.03274 7.75304 8.28333 7.13591 8.20235 6.83552C8.18284 6.7645 8.17767 6.69034 8.18714 6.61733C8.19661 6.54431 8.22053 6.47388 8.25752 6.41007C8.29451 6.34626 8.34384 6.29034 8.40269 6.24552C8.46153 6.2007 8.52872 6.16787 8.60039 6.14891C8.6719 6.1296 8.74657 6.12455 8.82006 6.13406C8.89356 6.14357 8.96442 6.16745 9.02856 6.20432C9.0927 6.24118 9.14884 6.29031 9.19373 6.34884C9.23862 6.40738 9.27137 6.47417 9.29009 6.54535Z" fill="#F2B200"/>
<path d="M7.56275 2.21448L5.0249 2.89156L5.3749 1.78808L6.6651 1.44409L7.56275 2.21448Z" fill="#66CAF2"/>
<path d="M3.37509 7.6712C3.73401 7.08131 4.63646 6.58271 5.3296 6.59156C4.95009 7.18689 4.06823 7.68005 3.37509 7.6712ZM11.4333 5.52282C10.8363 5.87498 9.8048 5.89201 9.19744 5.56029C9.79382 5.20744 10.826 5.19042 11.4333 5.52282ZM6.1497 6.35111C6.64244 5.85455 7.62931 5.59162 8.30529 5.77621C7.81323 6.27346 6.84558 6.53094 6.1497 6.35111Z" fill="#FCB74F"/>
<path d="M6.24097 1.55722L6.71655 2.44L7.56273 2.21453L6.66371 1.44482L6.24097 1.55722Z" fill="#428BC1"/>
<path d="M6.24167 1.55713L5.79834 1.67497L5.8704 2.66538L6.71657 2.44059L6.24167 1.55713Z" fill="#42ADE2"/>
<path d="M5.79833 1.67573L5.87039 2.66614L5.0249 2.89092L5.3749 1.78812L5.79833 1.67573Z" fill="#66CAF2"/>
<path d="M3.73471 9.48783C5.07775 9.0226 6.46197 8.63162 7.83177 8.26651C9.20157 7.90141 10.5975 7.55062 11.994 7.28564C10.651 7.75088 9.26608 8.14186 7.89697 8.50696C6.52167 8.85231 5.13128 9.22218 3.73471 9.48783Z" fill="#FFDD7D"/>
<path d="M3.7505 10.1064L12.2713 7.83472L12.331 8.05473L3.80884 10.3271L3.7505 10.1064Z" fill="#428BC1"/>
<path d="M3.80952 10.3272C3.8658 10.3129 3.89599 10.2468 3.87815 10.18C3.86031 10.114 3.8006 10.0717 3.74501 10.0867C3.69011 10.1017 3.65854 10.1678 3.67638 10.2339C3.69491 10.3006 3.75393 10.3422 3.80952 10.3272ZM12.3509 8.05006C12.4065 8.03507 12.4374 7.969 12.4195 7.90293C12.401 7.83618 12.342 7.79394 12.2864 7.80893C12.2308 7.82392 12.1999 7.88999 12.2178 7.95606C12.2356 8.02281 12.2953 8.06505 12.3509 8.05006Z" fill="#428BC1"/>
<path d="M10.4815 3.11222C10.3621 2.90787 10.2275 2.72872 10.0374 2.58568C9.84682 2.43427 9.62602 2.32469 9.3896 2.26417C9.21036 2.22283 9.02504 2.21406 8.84264 2.23829C8.69647 2.256 8.54068 2.31867 8.39039 2.40177C8.1447 2.53187 7.92029 2.74235 7.69107 2.93239C7.64166 2.98825 7.56617 3.0298 7.49617 3.09178C7.57166 2.72804 7.59088 2.4004 7.53735 2.19946L5.01872 2.87109C5.07362 3.07203 5.2548 3.34585 5.50254 3.62309C5.41058 3.60469 5.3447 3.60061 5.25343 3.58222C4.9597 3.53181 4.6598 3.46097 4.38186 3.47119C4.21992 3.46894 4.05902 3.49714 3.90764 3.55429C3.73296 3.61538 3.57521 3.71642 3.44715 3.84923C3.27824 4.02366 3.14288 4.22727 3.04774 4.45001C2.97138 4.66761 2.93082 4.896 2.92764 5.1264C2.94274 5.74558 3.22274 6.46556 3.77794 7.2414C4.20343 7.85854 4.67696 8.33398 4.89313 8.57716L5.96029 8.29243C5.89853 8.22296 5.81617 8.15893 5.75441 8.08945C5.72353 8.05539 5.67274 8.02542 5.64186 7.99068C5.03519 7.42191 3.8946 6.07185 3.87813 5.13049C3.87951 4.89413 3.93715 4.70681 4.11147 4.55287C4.16088 4.49633 4.23637 4.45478 4.42853 4.44661C4.62068 4.43843 4.84921 4.48475 5.10313 4.54606C5.49431 4.63529 5.92529 4.71362 6.36451 4.66117L7.25529 7.96888L8.16117 7.72707L7.27107 4.41936C7.67804 4.24635 8.01225 3.96367 8.32588 3.68712C8.52078 3.52772 8.6896 3.35335 8.86049 3.2648C9.03068 3.17625 9.11647 3.17488 9.18784 3.1994C9.39647 3.25117 9.56049 3.37923 9.6799 3.58358C10.1397 4.40642 9.82402 6.12362 9.59068 6.93761C9.58107 6.98325 9.55156 7.03433 9.54196 7.07997C9.50284 7.17601 9.48431 7.26661 9.46578 7.35788L10.5336 7.07316C10.6242 6.76936 10.7697 6.10796 10.8287 5.3614C10.898 4.41936 10.7793 3.65578 10.4815 3.11222Z" fill="#FCB74F"/>
<path d="M6.53676 3.45487C6.19363 3.54615 5.85392 3.48689 5.55814 3.35065C5.73725 3.7757 6.19225 4.01955 6.65549 3.89558C7.09814 3.77774 7.3898 3.33499 7.33078 2.87793C7.15016 3.16393 6.86602 3.37039 6.53676 3.45487Z" fill="#F2B200"/>
</svg>
