<svg xmlns="http://www.w3.org/2000/svg" width="102" height="69" viewBox="0 0 102 69" fill="none">
	<path
		d="M10.7188 13.985V34.478H5.88184V13.985H10.7188ZM22.4574 13.985L15.9392 23.1817L22.9883 34.478H17.3844L10.8663 23.5366L17.3549 13.985H22.4574ZM29.1175 18.7756V34.478H24.4575V18.7756H29.1175ZM26.758 10.4956C27.5642 10.4956 28.2229 10.7519 28.7341 11.2645C29.265 11.7573 29.5304 12.3881 29.5304 13.157C29.5304 13.9258 29.265 14.5666 28.7341 15.0791C28.2229 15.572 27.5642 15.8184 26.758 15.8184C25.9518 15.8184 25.2931 15.572 24.7819 15.0791C24.2707 14.5666 24.0151 13.9258 24.0151 13.157C24.0151 12.3881 24.2707 11.7573 24.7819 11.2645C25.2931 10.7519 25.9518 10.4956 26.758 10.4956ZM41.9541 18.2728C43.3109 18.2728 44.3727 18.6868 45.1395 19.5148C45.9063 20.3428 46.2898 21.506 46.2898 23.0043V34.478H41.6297V23.8027C41.6297 23.0141 41.5019 22.472 41.2463 22.1763C41.0103 21.8608 40.6466 21.7031 40.155 21.7031C39.2112 21.7031 38.3067 22.3833 37.4416 23.7436V34.478H32.7815V18.7756H36.8517L37.1761 20.6386C37.8447 19.85 38.5623 19.2586 39.3292 18.8643C40.1157 18.47 40.9907 18.2728 41.9541 18.2728ZM64.2264 19.6923C63.2039 20.1063 61.6997 20.3133 59.7138 20.3133C60.7363 20.747 61.4835 21.2793 61.9554 21.9101C62.4273 22.541 62.6632 23.3591 62.6632 24.3646C62.6632 25.37 62.3978 26.2768 61.8669 27.0851C61.336 27.8737 60.5691 28.4947 59.5664 28.9481C58.5832 29.4016 57.4231 29.6283 56.0861 29.6283C55.4569 29.6283 54.8571 29.5691 54.2869 29.4508C54.1296 29.5297 54.0018 29.6578 53.9035 29.8353C53.8249 29.993 53.7855 30.1606 53.7855 30.338C53.7855 30.6337 53.8937 30.8703 54.11 31.0477C54.3459 31.2054 54.808 31.2843 55.4962 31.2843H57.8557C59.0551 31.2843 60.1071 31.4814 61.0116 31.8757C61.916 32.27 62.6141 32.8121 63.1056 33.5021C63.5972 34.1921 63.843 34.9708 63.843 35.8383C63.843 37.4746 63.1351 38.7461 61.7194 39.653C60.3234 40.5796 58.2981 41.0428 55.6437 41.0428C53.7364 41.0428 52.2322 40.8358 51.1311 40.4218C50.03 40.0276 49.2533 39.4657 48.8011 38.7363C48.3685 38.0068 48.1522 37.0901 48.1522 35.9861H52.3403C52.3403 36.4593 52.4288 36.8338 52.6058 37.1098C52.8024 37.3858 53.1465 37.5928 53.6381 37.7308C54.1296 37.8688 54.8375 37.9378 55.7616 37.9378C57.0397 37.9378 57.9245 37.7801 58.4161 37.4647C58.9077 37.169 59.1534 36.7353 59.1534 36.1636C59.1534 35.6904 58.9666 35.3158 58.5931 35.0398C58.2195 34.7638 57.6591 34.6258 56.9119 34.6258H54.6409C53.0285 34.6258 51.8193 34.34 51.0131 33.7683C50.2266 33.1768 49.8333 32.4277 49.8333 31.5208C49.8333 30.9491 50.0005 30.3971 50.3347 29.8648C50.669 29.3128 51.1212 28.8594 51.6915 28.5046C50.7083 27.9723 49.9906 27.3513 49.5384 26.6416C49.1058 25.9121 48.8895 25.0348 48.8895 24.0097C48.8895 22.2551 49.5187 20.8653 50.7771 19.8401C52.0356 18.7953 53.6971 18.2728 55.7616 18.2728C57.3346 18.3123 58.6619 18.1546 59.7433 17.7997C60.8444 17.4448 61.975 16.9224 63.1351 16.2324L64.2264 19.6923ZM55.8796 21.3483C55.1521 21.3483 54.572 21.5848 54.1395 22.058C53.7265 22.5114 53.5201 23.1423 53.5201 23.9506C53.5201 24.7983 53.7265 25.4587 54.1395 25.9318C54.572 26.3853 55.1521 26.612 55.8796 26.612C56.6465 26.612 57.2265 26.3853 57.6198 25.9318C58.0327 25.4784 58.2391 24.7983 58.2391 23.8914C58.2391 22.196 57.4526 21.3483 55.8796 21.3483Z"
		fill="#FCB74F"
	/>
	<path
		d="M36.5063 45.8383C37.5714 45.8383 38.4234 46.1999 39.0625 46.9226C39.7015 47.6291 40.021 48.5902 40.021 49.8058V59.1208H37.7598V50.1262C37.7598 48.4505 37.1536 47.6126 35.941 47.6126C35.302 47.6126 34.7613 47.8016 34.3188 48.1794C33.8764 48.5409 33.4013 49.1158 32.8933 49.9044V59.1208H30.6321V50.1262C30.6321 48.4505 30.0259 47.6126 28.8133 47.6126C28.1579 47.6126 27.609 47.8016 27.1666 48.1794C26.7242 48.5573 26.2572 49.1324 25.7656 49.9044V59.1208H23.5044V46.1341H25.4461L25.6427 48.0316C26.6095 46.5695 27.8548 45.8383 29.3786 45.8383C30.1816 45.8383 30.8615 46.0437 31.4186 46.4544C31.9921 46.8652 32.4017 47.4401 32.6475 48.1794C33.1556 47.4237 33.7126 46.8487 34.3188 46.4544C34.9415 46.0437 35.6707 45.8383 36.5063 45.8383ZM49.445 45.8383C51.2638 45.8383 52.6728 46.4463 53.6724 47.6619C54.6882 48.8777 55.1963 50.5287 55.1963 52.6151C55.1963 53.9624 54.9668 55.1533 54.5081 56.1883C54.0492 57.207 53.3856 58.0038 52.5172 58.5787C51.6488 59.1374 50.6165 59.4166 49.4204 59.4166C47.6016 59.4166 46.1842 58.8087 45.1683 57.593C44.1524 56.3774 43.6445 54.7263 43.6445 52.6398C43.6445 51.2927 43.8738 50.1098 44.3327 49.0912C44.7914 48.0562 45.455 47.2595 46.3235 46.7008C47.1919 46.1259 48.2324 45.8383 49.445 45.8383ZM49.445 47.6619C47.2001 47.6619 46.0777 49.3212 46.0777 52.6398C46.0777 55.9419 47.1919 57.593 49.4204 57.593C51.6488 57.593 52.763 55.9338 52.763 52.6151C52.763 49.313 51.657 47.6619 49.445 47.6619ZM68.3475 46.1341L63.948 59.1208H61.2198L56.7466 46.1341H59.2044L62.5962 57.1001L65.9634 46.1341H68.3475ZM73.1941 46.1341V59.1208H70.9329V46.1341H73.1941ZM72.0389 39.8994C72.5142 39.8994 72.8992 40.0473 73.1941 40.343C73.4891 40.6387 73.6365 41.0083 73.6365 41.4519C73.6365 41.8955 73.4891 42.2651 73.1941 42.5608C72.8992 42.8402 72.5142 42.9798 72.0389 42.9798C71.5802 42.9798 71.2033 42.8402 70.9083 42.5608C70.6134 42.2651 70.4659 41.8955 70.4659 41.4519C70.4659 41.0083 70.6134 40.6387 70.9083 40.343C71.2033 40.0473 71.5802 39.8994 72.0389 39.8994ZM87.6517 52.2455C87.6517 52.6234 87.6354 53.0094 87.6025 53.4037H79.3442C79.4425 54.833 79.8031 55.8845 80.4257 56.558C81.0484 57.2316 81.8512 57.5683 82.8344 57.5683C83.457 57.5683 84.0306 57.478 84.5548 57.2973C85.0792 57.1166 85.6282 56.8291 86.2016 56.4348L87.1847 57.7901C85.8083 58.8744 84.3009 59.4166 82.6623 59.4166C80.86 59.4166 79.4508 58.8251 78.4348 57.6423C77.4354 56.4594 76.9356 54.833 76.9356 52.763C76.9356 51.4159 77.1485 50.2248 77.5746 49.1898C78.017 48.1384 78.6397 47.3169 79.4425 46.7255C80.2619 46.1341 81.2204 45.8383 82.3182 45.8383C84.0387 45.8383 85.3578 46.4051 86.2753 47.5387C87.1929 48.6723 87.6517 50.2413 87.6517 52.2455ZM85.4151 51.5801C85.4151 50.2987 85.1612 49.3212 84.6531 48.6476C84.1452 47.9741 83.3833 47.6373 82.3674 47.6373C80.5159 47.6373 79.508 49.0009 79.3442 51.728H85.4151V51.5801ZM94.7776 45.8383C95.6624 45.8383 96.457 45.9616 97.1617 46.208C97.8662 46.4544 98.538 46.8241 99.1771 47.3169L98.2185 48.7462C97.6286 48.3684 97.0633 48.0891 96.5226 47.9083C95.9982 47.7277 95.4412 47.6373 94.8513 47.6373C94.1139 47.6373 93.5322 47.7934 93.1062 48.1055C92.6802 48.4012 92.4672 48.812 92.4672 49.3376C92.4672 49.8634 92.6638 50.2741 93.0571 50.5698C93.4667 50.8655 94.1958 51.1531 95.2445 51.4323C96.6864 51.7938 97.7597 52.2866 98.4643 52.9108C99.1852 53.5352 99.5458 54.3894 99.5458 55.4737C99.5458 56.7551 99.046 57.7327 98.0465 58.4062C97.0633 59.0798 95.859 59.4166 94.4335 59.4166C92.4672 59.4166 90.8368 58.8498 89.5424 57.7162L90.7467 56.3362C91.8445 57.1741 93.0571 57.593 94.3843 57.593C95.2363 57.593 95.9082 57.4205 96.3997 57.0755C96.9076 56.7141 97.1617 56.2295 97.1617 55.6216C97.1617 55.178 97.0715 54.8249 96.8913 54.5619C96.711 54.2827 96.3997 54.0444 95.9573 53.8473C95.5149 53.6337 94.8676 53.412 94.0156 53.1819C92.6392 52.8205 91.6396 52.3359 91.0171 51.728C90.4107 51.1202 90.1077 50.348 90.1077 49.4116C90.1077 48.7381 90.3043 48.1301 90.6976 47.588C91.1072 47.0295 91.6642 46.6023 92.3689 46.3066C93.0898 45.9945 93.8927 45.8383 94.7776 45.8383Z"
		fill="#DEDEDE"
	/>
	<path
		d="M17.6886 11.0172C16.4225 8.0453 13.2102 6.38483 10.0987 7.22073C6.98723 8.05662 5.0333/Users/siparat/Downloads/Frame.png5 11.105 5.41103 14.284L17.6807 10.9878L17.6886 11.0172Z"
		fill="#428BC1"
	/>
	<path
		d="M18.7279 4.42896C18.4689 3.93075 18.0359 3.60547 17.4955 3.46677C17.2585 3.40425 17.008 3.40847 16.7654 3.44212C16.552 3.4679 16.3544 3.55253 16.1647 3.66659C15.8359 3.84952 15.5309 4.12073 15.2474 4.35462C14.8621 4.67892 14.5063 4.99534 14.1247 5.09785L14.4865 6.45166C15.1615 6.27028 15.6993 5.81038 16.1569 5.40356C16.6438 4.98884 16.9488 4.71764 17.1858 4.78016C17.3562 4.82902 17.4757 4.92308 17.5444 5.06235C17.6209 5.23105 17.6839 5.46648 17.6959 5.74713C17.7159 6.05721 17.6556 6.42037 17.5817 6.85029C17.4262 7.68068 17.1452 8.51318 16.9346 9.13757C16.8723 9.37511 16.802 9.58325 16.7455 9.72462L16.7045 9.92487C16.7124 9.95429 16.683 9.96218 16.6909 9.99162L5.83017 12.9094C5.8223 12.88 5.79296 12.8879 5.78509 12.8584L5.64984 12.7055C5.52245 12.582 5.35785 12.4369 5.19325 12.2919C4.69943 11.8568 4.04101 11.2766 3.49214 10.6355C3.21377 10.3002 3.00984 10.008 2.84313 9.73739C2.70577 9.45885 2.61349 9.2313 2.63287 9.06837C2.62291 8.91333 2.6795 8.77195 2.80267 8.64423C2.97669 8.47131 3.36826 8.52382 4.00461 8.66831C4.60376 8.79122 5.26949 8.92782 5.97396 8.73856L5.61217 7.38476C5.23057 7.48727 4.76456 7.39166 4.26921 7.30394C3.89914 7.21409 3.50757 7.16158 3.13173 7.16791C2.85182 7.18003 2.63848 7.2058 2.44087 7.29043C2.21391 7.38295 1.99482 7.50489 1.82081 7.67781C1.42194 8.06887 1.21703 8.59706 1.23332 9.12893C1.26745 9.84526 1.64232 10.6593 2.45382 11.5769C3.04778 12.269 3.75127 12.9001 4.28231 13.3568C4.44691 13.5018 4.61153 13.6469 4.70169 13.7488C4.74677 13.7998 4.79186 13.8508 4.86629 13.8938C5.11319 14.1114 5.28567 14.2858 5.4073 14.5055L6.29606 17.8312C6.20801 17.8549 6.16504 17.9294 6.1965 18.0472C6.22009 18.1354 6.30239 18.208 6.39046 18.1843L18.807 14.8486C18.895 14.8249 18.938 14.7504 18.9065 14.6326C18.8829 14.5443 18.8006 14.4718 18.7126 14.4954L17.8316 11.1992C17.8568 10.9401 17.9191 10.7026 17.9951 10.3983C18.0088 10.3315 18.0223 10.2648 18.0653 10.1902C18.0926 10.0567 18.1628 9.84854 18.2331 9.6404C18.4358 8.98659 18.7303 8.08735 18.9289 7.18232C19.1448 5.98876 19.0634 5.09586 18.7279 4.42896Z"
		fill="#FCB74F"
	/>
	<path
		d="M10.5832 7.97395C10.8558 8.40541 10.3108 9.30889 9.34843 9.94595C8.39396 10.6124 7.37235 10.7923 7.07039 10.3687C6.79778 9.93723 7.34284 9.03375 8.30518 8.3967C9.26752 7.75964 10.2813 7.55037 10.5832 7.97395Z"
		fill="#42ADE2"
	/>
	<path d="M10.9827 13.3551L12.3917 12.9766L13.2411 16.155L11.8321 16.5335L10.9827 13.3551Z" fill="#FCB74F" />
	<path d="M13.3899 12.7081L14.7988 12.3296L15.6483 15.508L14.2393 15.8865L13.3899 12.7081Z" fill="#FCB74F" />
	<path d="M12.3918 12.9761L13.3898 12.708L14.2393 15.8864L13.2413 16.1546L12.3918 12.9761Z" fill="#FCB74F" />
	<path d="M15.7971 12.0616L16.7951 11.7935L17.6447 14.972L16.6465 15.2401L15.7971 12.0616Z" fill="#FCB74F" />
	<path d="M5.46484 14.8374L6.46286 14.5693L7.3123 17.7478L6.31428 18.0159L5.46484 14.8374Z" fill="#FCB74F" />
	<path d="M6.58008 14.538L8.5174 14.0176L9.36684 17.1961L7.42952 17.7166L6.58008 14.538Z" fill="#FCB74F" />
	<path
		d="M9.8678 10.5947C9.98578 11.0362 9.49212 12.3675 9.49212 12.3675C9.49212 12.3675 8.4007 11.462 8.28272 11.0206C8.16475 10.5791 8.42261 10.1313 8.86291 10.013C9.3032 9.89474 9.74983 10.1533 9.8678 10.5947Z"
		fill="#F2B200"
	/>
	<path
		d="M13.5375 9.60888C13.6555 10.0503 13.1619 11.3816 13.1619 11.3816C13.1619 11.3816 12.0704 10.4762 11.9524 10.0347C11.8344 9.59327 12.0923 9.14547 12.5325 9.02719C12.9729 8.90889 13.4196 9.16743 13.5375 9.60888Z"
		fill="#F2B200"
	/>
	<path d="M11.0201 3.25099L7.32153 4.24461L7.83247 2.6248L9.71107 2.12012L11.0201 3.25099Z" fill="#66CAF2" />
	<path
		d="M4.91772 11.2622C5.4413 10.3961 6.75589 9.66439 7.76598 9.67692C7.21304 10.551 5.92782 11.2748 4.91772 11.2622Z"
		fill="#FCB74F"
	/>
	<path
		d="M16.6591 8.10776C15.7906 8.62499 14.2873 8.65035 13.4019 8.1627C14.2705 7.64549 15.7738 7.62013 16.6591 8.10776Z"
		fill="#FCB74F"
	/>
	<path
		d="M8.96143 9.32396C9.67897 8.59495 11.1173 8.20853 12.1022 8.48016C11.3847 9.20917 9.97574 9.5877 8.96143 9.32396Z"
		fill="#FCB74F"
	/>
	<path d="M9.09424 2.28572L9.78679 3.5822L11.0196 3.251L9.71066 2.12012L9.09424 2.28572Z" fill="#428BC1" />
	<path d="M9.09451 2.28564L8.44873 2.45914L8.55422 3.91334L9.78706 3.58213L9.09451 2.28564Z" fill="#42ADE2" />
	<path d="M8.44889 2.45947L8.55437 3.91367L7.32153 4.24488L7.83247 2.62507L8.44889 2.45947Z" fill="#66CAF2" />
	<path
		d="M5.44189 13.929C7.3986 13.2456 9.41611 12.6721 11.4121 12.1358C13.4082 11.5996 15.4414 11.0849 17.4767 10.6958C15.5201 11.3792 13.5025 11.9527 11.5065 12.489C9.50262 12.9958 7.47725 13.5399 5.44189 13.929Z"
		fill="#FFDD7D"
	/>
	<path d="M5.46484 14.8371L17.8813 11.5015L17.9678 11.8252L5.55136 15.161L5.46484 14.8371Z" fill="#428BC1" />
	<path
		d="M5.5515 15.1612C5.63255 15.1396 5.67713 15.0428 5.65107 14.9452C5.625 14.8478 5.53817 14.7863 5.45711 14.8081C5.37606 14.8299 5.33148 14.9266 5.35754 15.0241C5.38359 15.1217 5.47044 15.183 5.5515 15.1612Z"
		fill="#428BC1"
	/>
	<path
		d="M17.997 11.8175C18.0781 11.7957 18.1227 11.699 18.0966 11.6015C18.0705 11.504 17.9837 11.4426 17.9026 11.4643C17.8216 11.4861 17.777 11.5828 17.8031 11.6804C17.8291 11.7779 17.916 11.8393 17.997 11.8175Z"
		fill="#428BC1"
	/>
	<path
		d="M15.2731 4.56876C15.0986 4.26868 14.9025 4.00591 14.6262 3.79625C14.3499 3.58658 14.0522 3.41421 13.6822 3.32438C13.4158 3.26975 13.1574 3.24454 12.8854 3.28608C12.6721 3.31185 12.4451 3.40437 12.226 3.52632C11.868 3.71713 11.5415 4.02565 11.2071 4.30476C11.1347 4.38728 11.0252 4.44824 10.9235 4.53866C11.0325 4.00468 11.0613 3.52379 10.9826 3.22949L7.31345 4.21522C7.3921 4.50953 7.65684 4.91155 8.01752 5.31935C7.88436 5.29204 7.78845 5.28626 7.65529 5.25894C7.22651 5.18488 6.78987 5.08138 6.38467 5.09561C6.13412 5.09984 5.89143 5.13349 5.69382 5.21812C5.43751 5.31853 5.2184 5.44047 5.02291 5.65071C4.77656 5.90615 4.5753 6.21257 4.44062 6.53265C4.33528 6.84483 4.26717 7.17857 4.26562 7.52596C4.28824 8.43464 4.69667 9.49203 5.50453 10.6314C6.12419 11.5374 6.81406 12.2352 7.12965 12.5921L8.68538 12.1741C8.59521 12.0722 8.47569 11.9781 8.38553 11.8762C8.34044 11.8252 8.266 11.7821 8.22091 11.7311C7.33708 10.8961 5.67474 8.91384 5.65156 7.53215C5.6531 7.18476 5.73694 6.90988 5.99116 6.68387C6.06348 6.60135 6.17303 6.54038 6.45294 6.52827C6.73285 6.51616 7.06571 6.58444 7.43579 6.67428C8.00558 6.8051 8.63409 6.92014 9.2741 6.84283L10.5719 11.6988L11.8928 11.344L10.595 6.48797C11.1878 6.23407 11.6748 5.81937 12.1323 5.41254C12.4159 5.17866 12.6623 4.92321 12.9106 4.79338C13.1591 4.66355 13.2844 4.66143 13.3882 4.69663C13.6917 4.77281 13.9308 4.96094 14.1053 5.26101C14.7743 6.46921 14.3153 8.98982 13.9741 10.1855C13.9605 10.2522 13.9176 10.3269 13.904 10.3936C13.8473 10.535 13.8202 10.6685 13.7929 10.802L15.3486 10.384C15.4812 9.93834 15.6934 8.96657 15.7782 7.87131C15.8803 6.48751 15.7067 5.36704 15.2731 4.56876Z"
		fill="#FCB74F"
	/>
	<path
		d="M9.52462 5.07239C9.02561 5.20645 8.53026 5.11872 8.09937 4.91905C8.36046 5.54286 9.02253 5.90123 9.69766 5.71986C10.3434 5.54637 10.7674 4.89622 10.6825 4.2251C10.4167 4.64346 10.0236 4.93832 9.52462 5.07239Z"
		fill="#F2B200"
	/>
</svg>